<svg  width="400" height="400" viewBox="0 0 400 400" >
<g id="svgg">
<path id="path0" d="M64.5,18.4c-1.4,0.2,-2.7,0.5,-3,0.7c-0.3,0.3,-0.8,0.5,-1.3,0.5c-0.8,0,-6.5,2.7,-7.6,3.6c-4,3.2,-6.5,5.8,-7.5,7.8c-0.2,0.5,-0.6,0.9,-0.7,1c-0.8,0.6,-3,5.6,-3.4,7.6c-0.2,0.8,-0.5,1.7,-0.7,2c-0.6,0.7,-0.8,130.2,-0.3,182.4c0.4,38,0.4,38.7,2.2,42.9c0.3,0.7,0.7,1.6,0.8,1.9c0.9,2.1,3.3,5.4,6.2,8.3c4.1,4.1,7.9,6.2,14.1,7.7c4.9,1.2,268.8,1.2,273.8,0c10.8,-2.7,18.2,-9.6,22.1,-20.6c1.2,-3.3,1.6,-49.7,1.5,-149.4c-0.1,-80.3,0.1,-72.4,-2.4,-78.6c-3.3,-7.8,-10.1,-14,-19.1,-17.1l-2.6,-0.9h-134.8c-74.1,0,-135.9,0.1,-137.3,0.2M338.1,19.4c1.2,0.4,2.9,1,3.8,1.4c0.9,0.4,1.8,0.8,1.9,0.8c2.5,0,13.4,10.9,13.4,13.4c0,0.2,0.3,1,0.8,1.9c1.9,4.2,1.8,0.1,1.9,88.5l0.1,83.3h-16.7c-9.2,0,-18.4,0.2,-20.5,0.4c-2.1,0.2,-6.2,0.5,-9.2,0.7c-3,0.2,-6.8,0.6,-8.4,0.8c-1.6,0.2,-4.3,0.6,-5.8,0.8c-7.3,1,-15.2,2.5,-21.4,4c-8.8,2.2,-9.6,2.4,-11.2,3c-0.8,0.3,-2,0.7,-2.8,0.8c-0.8,0.2,-1.7,0.4,-2,0.6c-0.7,0.4,-4.1,1.5,-6,2c-0.7,0.2,-1.5,0.5,-1.8,0.8c-0.2,0.2,-0.7,0.4,-1,0.4c-0.6,0,-7.1,2.5,-10.4,4c-1.4,0.6,-2.9,1.3,-3.5,1.4c-0.6,0.1,-1.2,0.5,-1.5,0.8c-0.3,0.3,-0.7,0.6,-1,0.6c-0.5,0,-4.2,1.8,-10.2,5c-3.5,1.9,-14.1,8.4,-14.4,8.9c-0.1,0.2,-0.9,0.7,-1.7,1.2c-0.8,0.5,-1.9,1.3,-2.4,1.7c-1.2,1,-4.9,4,-6.8,5.3l-1.5,1.1l-2.9,-2.5c-1.6,-1.4,-3.4,-2.8,-3.9,-3.1c-0.5,-0.4,-2.1,-1.5,-3.5,-2.5c-1.4,-1.1,-2.6,-1.9,-2.7,-1.9c-0.1,0,-0.9,-0.5,-1.7,-1.1c-1.7,-1.3,-9.5,-5.9,-14.3,-8.4c-1.8,-0.9,-3.5,-1.8,-3.8,-2c-0.3,-0.2,-1.3,-0.6,-2.2,-1c-0.9,-0.4,-1.9,-0.9,-2.2,-1c-0.3,-0.2,-1.1,-0.5,-1.6,-0.7c-0.5,-0.2,-1.4,-0.6,-1.8,-0.8c-0.4,-0.2,-1.7,-0.7,-2.8,-1.2c-1.1,-0.5,-2.5,-1.1,-3.2,-1.4c-1.7,-0.7,-7.8,-3,-9.2,-3.4c-1.6,-0.5,-8.5,-2.7,-10,-3.2c-2.1,-0.7,-5.1,-1.6,-7.4,-2c-1.2,-0.2,-2.5,-0.6,-2.8,-0.8c-0.4,-0.2,-1.6,-0.5,-2.8,-0.7c-1.2,-0.2,-4,-0.8,-6.2,-1.2c-8.9,-1.9,-23.9,-4,-28.8,-4c-1.5,0,-3.5,-0.2,-4.4,-0.4c-1,-0.3,-9.3,-0.5,-21.6,-0.7l-20,-0.3v-82.2v-82.2l0.9,-3c2.6,-9.1,8.3,-16.2,15.2,-19.4c3.1,-1.4,4,-1.7,5.7,-2.4c2.8,-1,272.8,-1,276.1,0M192.7,29.2c-2.7,0.3,-3.3,0.5,-8.1,2c-2.8,0.9,-3.5,1.2,-7,2.8c-7.8,3.7,-16.6,11.8,-21.2,19.6c-1.5,2.6,-3.4,7,-4.4,10.2c-0.5,1.5,-1.1,3.3,-1.3,3.8c-1.7,4.2,-1.5,19,0.3,24.6c0.3,1.1,0.9,2.9,1.3,4c0.9,2.7,3.2,7.6,4.6,9.7c0.6,0.9,1.2,1.8,1.2,2c0,0.5,5.4,6.8,7.6,8.7c4.2,3.8,7.2,5.8,12,8.2c5,2.4,5.7,2.7,7,3c0.7,0.1,1.6,0.4,2,0.6c6.5,2.8,22.8,2.2,31.2,-1.2c15.2,-6.2,25.8,-17.2,30.6,-31.6c1.2,-3.7,1.4,-4.5,2.4,-11.8c0.8,-6.1,-0.6,-16.7,-3,-22.1c-0.3,-0.7,-0.6,-1.4,-0.6,-1.6c0,-0.9,-3.1,-6.4,-5.9,-10.7c-0.9,-1.4,-8.1,-8.8,-9.7,-10c-5.9,-4.5,-10.8,-6.8,-20.3,-9.6c-2.6,-0.7,-14.4,-1.1,-18.5,-0.6M209.2,30c0.8,0.2,2.2,0.6,3.2,0.8c1.8,0.3,5.1,1.4,6.6,2c0.4,0.2,1.3,0.5,1.8,0.8c1,0.4,1.4,0.6,3,1.5c0.4,0.3,1.3,0.7,1.8,1c0.6,0.3,1.1,0.6,1.2,0.7c0.1,0.1,1,0.7,2,1.4c6.5,4.2,13.8,12.8,16.6,19.4c0.3,0.8,0.8,1.7,1,2.1c3,5.4,4.6,17.2,3.5,26.3c-0.3,2.8,-0.8,5.4,-1.1,5.9c-0.3,0.5,-0.5,1.3,-0.5,1.8c0,0.5,-0.3,1.4,-0.6,2.1c-0.3,0.6,-0.6,1.4,-0.6,1.6c0,0.3,-0.4,1.1,-0.8,2c-0.4,0.8,-0.8,1.7,-0.8,1.9c0,0.2,-0.5,1.2,-1.2,2.2c-0.7,1,-1.2,1.9,-1.2,2.1c0,0.2,-0.3,0.7,-0.6,1.1c-0.3,0.4,-1.5,2,-2.6,3.4c-7.5,10,-20.3,17.6,-32,19.1c-6.1,0.8,-19.4,0.1,-20.6,-1c-0.2,-0.2,-0.8,-0.4,-1.4,-0.4c-1.7,0,-9.3,-3.4,-13,-5.8c-3.4,-2.2,-7.8,-5.9,-10,-8.5c-0.7,-0.8,-1.4,-1.6,-1.5,-1.7c-0.6,-0.6,-3.2,-4,-3.2,-4.1c0,-0.1,-0.5,-1,-1.2,-1.9c-0.6,-0.9,-1.6,-2.8,-2.2,-4.1c-0.6,-1.3,-1.2,-2.7,-1.5,-3.1c-0.2,-0.4,-0.4,-0.9,-0.4,-1.1c0,-0.2,-0.2,-1,-0.6,-1.7c-2.3,-5.2,-3.4,-22,-1.7,-26c0.3,-0.8,0.6,-2,0.6,-2.6c0,-0.6,0.2,-1.5,0.5,-2.1c0.3,-0.6,0.7,-1.5,0.8,-2.2c1.9,-7.6,10.6,-18.9,18.5,-24.2c1.7,-1.1,3.6,-2.4,4.2,-2.8c0.6,-0.4,1.3,-0.7,1.7,-0.7c0.3,0,0.8,-0.3,1.1,-0.6c0.3,-0.3,0.8,-0.6,1.1,-0.6c0.3,0,1.1,-0.3,1.7,-0.6c1.5,-0.8,4.7,-1.8,7.1,-2.3c1.1,-0.2,2.5,-0.5,3.2,-0.7c1.7,-0.5,16.1,-0.5,17.8,0M149.4,117.2c-4.1,0.8,-6,1.2,-6.4,1.6c-0.2,0.2,-1.1,0.5,-1.8,0.6c-0.7,0.2,-2.2,0.8,-3.3,1.4c-1.1,0.6,-2.1,1.2,-2.2,1.2c-0.5,0,-5.7,3.6,-8.2,5.7c-4.2,3.5,-9.4,9.3,-12.7,14.2c-2.9,4.3,-4.1,6.3,-6.6,11.2c-0.6,1.1,-1.6,3.4,-3,6.6c-0.3,0.8,-0.8,1.9,-1.1,2.5c-0.3,0.6,-0.6,1.4,-0.6,1.7c0,0.3,-0.2,1.1,-0.5,1.9c-3.7,8.7,-7.3,33,-5.2,34.6c0.5,0.4,2.1,0.5,5.2,0.5c2.4,0,5.4,0.2,6.6,0.5c1.2,0.3,3.2,0.7,4.4,0.8c2.1,0.2,4.5,0.7,10.2,2.1c5,1.2,15.3,4.3,17.2,5.2c0.7,0.3,1.7,0.7,2.4,0.8c0.6,0.2,1.6,0.5,2.2,0.8c0.6,0.3,1.3,0.5,1.6,0.6c0.3,0,0.9,0.3,1.4,0.6c0.4,0.3,1,0.6,1.3,0.6c0.3,0,1.1,0.2,1.8,0.5c0.7,0.3,2.3,0.9,3.5,1.4c2.1,0.8,2.9,1.2,6.4,2.7c1.8,0.8,3.8,1.7,7.6,3.5c1.7,0.8,3.2,1.4,3.5,1.4c0.3,0,0.5,0.2,0.5,0.4c0,0.2,0.2,0.4,0.5,0.4c0.3,0,1,0.2,1.5,0.5c0.6,0.3,2.5,1.4,4.4,2.3c1.9,1,4,2.2,4.8,2.7c0.8,0.5,1.8,1,2.3,1.3c0.5,0.2,1.7,0.9,2.7,1.6c1,0.7,1.9,1.2,2,1.2c0.1,0,1.1,0.6,2.1,1.4c2.5,1.8,2.5,1.8,4,3.1c1.6,1.3,3.4,1.5,4.2,0.3c0.3,-0.4,0.7,-0.8,1,-0.8c0.3,0,0.6,-0.2,0.8,-0.5c0.4,-0.6,3.2,-2.6,5.1,-3.7c0.7,-0.4,1.7,-1,2.4,-1.4c0.7,-0.4,1.6,-1,2,-1.2c0.4,-0.2,1.9,-1,3.2,-1.8c2.3,-1.3,3.2,-1.8,4.6,-2.4c0.3,-0.1,1.1,-0.6,1.8,-1c0.7,-0.4,1.7,-1,2.2,-1.2c1.3,-0.5,3.6,-1.6,4.4,-2c0.8,-0.4,3.8,-1.9,6,-2.8c1,-0.4,2.4,-1.1,3.2,-1.4c0.8,-0.3,1.9,-0.9,2.5,-1.2c0.6,-0.3,1.3,-0.5,1.5,-0.5c0.3,0,1.2,-0.3,2.1,-0.7c0.9,-0.4,2.5,-1,3.5,-1.4c1,-0.4,2.3,-1,2.9,-1.3c0.6,-0.3,1.3,-0.6,1.6,-0.6c0.3,0,1,-0.3,1.5,-0.6c0.6,-0.3,1.7,-0.7,2.4,-0.8c0.7,-0.2,1.8,-0.5,2.3,-0.8c0.6,-0.3,2.4,-0.9,4,-1.4c1.7,-0.5,3.8,-1.1,4.7,-1.4c0.9,-0.3,2,-0.6,2.3,-0.6c0.3,0,1.1,-0.3,1.7,-0.6c0.6,-0.3,1.6,-0.6,2.1,-0.6c0.5,0,1.8,-0.3,2.8,-0.6c2.9,-0.9,9,-2.2,10.3,-2.2c0.6,0,2.2,-0.3,3.6,-0.6c1.4,-0.3,4.4,-0.6,7.1,-0.6c3.7,0,4.8,-0.1,5.2,-0.6c0.6,-0.7,0.3,-9.9,-0.4,-13c-0.2,-1,-0.6,-3,-0.8,-4.6c-0.7,-4.8,-2.1,-11,-3.1,-13.3c-0.3,-0.7,-0.6,-1.6,-0.6,-2c0,-0.4,-0.4,-1.4,-0.8,-2.3c-0.4,-0.9,-0.8,-1.9,-0.8,-2.3c0,-0.4,-0.3,-1.2,-0.6,-1.8c-0.3,-0.6,-0.8,-1.8,-1.2,-2.5c-2.4,-5.4,-5.9,-11.9,-7.5,-14.1c-0.6,-0.8,-1.2,-1.6,-1.2,-1.7c0,-0.2,-1.5,-2.5,-2.3,-3.5c-3.3,-4.1,-6.1,-7.3,-7.7,-8.7c-2.8,-2.6,-8.9,-7.3,-9.5,-7.3c-0.3,0,-0.6,-0.2,-0.7,-0.3c-0.2,-0.4,-5.5,-3.3,-6,-3.3c-0.2,0,-0.9,-0.3,-1.6,-0.6c-1.7,-0.8,-8.3,-2.2,-10.2,-2.2c-1.4,0,-1.8,0.3,-4.7,3.3c-8.2,8.4,-19.4,15.1,-27.8,16.7c-1,0.2,-2.3,0.5,-2.9,0.8c-4.4,1.7,-20.5,1.6,-25.6,-0.2c-0.9,-0.3,-2,-0.6,-2.5,-0.6c-0.5,0,-1.4,-0.3,-2,-0.6c-0.6,-0.3,-1.4,-0.6,-1.7,-0.6c-0.5,0,-1.9,-0.5,-5.7,-2.3c-0.8,-0.3,-1.7,-0.8,-2,-1c-0.3,-0.2,-1,-0.6,-1.6,-0.8c-0.5,-0.3,-1.2,-0.6,-1.4,-0.8c-0.2,-0.2,-1.3,-0.9,-2.4,-1.6c-5.3,-3.5,-6.4,-4.4,-10.8,-9c-3.5,-3.6,-3.6,-3.6,-7.6,-2.9M157.7,121.5c3.9,3.9,8.1,7.3,11,8.8c0.6,0.3,1.2,0.7,1.3,0.9c0.1,0.2,1.2,0.8,2.4,1.4c1.2,0.6,2.5,1.2,2.8,1.4c1.1,0.7,7,2.9,8.6,3.2c0.9,0.2,2.3,0.5,3.2,0.8c8.2,2.1,23.6,1.9,27.7,-0.3c0.4,-0.2,1.2,-0.4,1.7,-0.4c0.5,0,1.4,-0.2,2.1,-0.5c0.7,-0.3,2.3,-0.9,3.5,-1.4c2.9,-1.1,3.3,-1.2,4,-1.6c0.3,-0.2,1.4,-0.8,2.4,-1.3c2.8,-1.5,8.4,-5.2,10.1,-6.9c0.9,-0.8,1.7,-1.5,1.9,-1.5c0.4,0,4.5,-4.4,5.3,-5.6c0.9,-1.3,8.6,-0.6,11.7,1c0.6,0.3,1.5,0.6,2,0.6c0.5,0,1.1,0.3,1.3,0.6c0.3,0.3,0.8,0.6,1.2,0.6c0.4,0,0.8,0.2,1,0.4c0.1,0.2,1,0.8,2,1.2c3.9,1.9,10.9,7.9,15.2,13c1.1,1.3,2.3,2.8,2.7,3.2c0.4,0.4,1.3,1.8,1.9,2.9c0.7,1.2,1.4,2.1,1.6,2.1c0.2,0,0.4,0.2,0.4,0.5c0,0.3,0.3,0.8,0.6,1.1c1.2,1.3,6.2,11.2,6.2,12.2c0,0.3,0.2,0.7,0.5,1c0.5,0.5,1.2,2.3,2,4.8c0.2,0.7,0.7,1.8,1,2.4c0.3,0.6,0.6,1.5,0.6,2c0,0.5,0.3,1.5,0.6,2.2c0.6,1.5,1.3,4,2.1,7.9c0.3,1.4,0.7,3.4,0.9,4.4c0.5,2.5,1.3,10.4,1.4,14.2l0.1,3.2l-6.8,0.5c-3.7,0.3,-7.2,0.7,-7.8,0.9c-0.6,0.2,-2,0.5,-3.2,0.7c-1.2,0.1,-3.1,0.5,-4.2,0.8c-1.1,0.3,-2.8,0.7,-3.8,1c-5,1.3,-6.4,1.6,-8.4,2.2c-1.2,0.4,-3,0.9,-4,1.2c-2.5,0.7,-4.4,1.4,-5.8,2c-0.7,0.3,-1.8,0.7,-2.6,0.9c-0.8,0.2,-2.4,0.8,-3.6,1.3c-1.2,0.5,-2.8,1,-3.5,1.2c-0.7,0.2,-1.4,0.6,-1.5,0.8c-0.1,0.2,-0.5,0.4,-0.9,0.4c-0.4,0,-1.4,0.4,-2.2,0.8c-0.8,0.4,-1.7,0.8,-1.9,0.8c-0.4,0,-3.4,1.3,-7.4,3.2c-2.8,1.3,-7.6,3.5,-8.2,3.8c-0.3,0.1,-0.9,0.4,-1.2,0.6c-1.1,0.6,-2.2,1.2,-4.8,2.6c-4.1,2.1,-6.1,3.3,-7.9,4.4c-0.9,0.6,-1.8,1.1,-2,1.1c-0.2,0,-0.7,0.3,-1.1,0.6c-0.4,0.3,-2.1,1.5,-3.8,2.6c-1.7,1.1,-3.3,2.3,-3.8,2.8c-1.1,1.3,-3,1.1,-4.7,-0.5c-0.8,-0.7,-1.8,-1.6,-2.3,-1.9c-0.5,-0.3,-1.3,-0.9,-1.8,-1.3c-0.5,-0.4,-1,-0.7,-1.1,-0.7c-0.1,0,-1,-0.5,-2,-1.2c-1,-0.7,-2.2,-1.4,-2.7,-1.6c-0.5,-0.2,-1.5,-0.8,-2.2,-1.2c-2,-1.3,-10.3,-5.6,-15,-7.8c-1.7,-0.8,-4.4,-2,-6.1,-2.8c-1.7,-0.8,-3.3,-1.4,-3.7,-1.4c-0.3,0,-0.8,-0.3,-1.1,-0.6c-0.3,-0.3,-0.9,-0.6,-1.4,-0.6c-0.5,0,-1.2,-0.2,-1.7,-0.5c-0.4,-0.3,-1.9,-0.9,-3.2,-1.4c-1.3,-0.5,-2.9,-1.2,-3.6,-1.4c-0.7,-0.3,-1.6,-0.6,-2,-0.7c-0.4,-0.1,-2.1,-0.7,-3.6,-1.3c-1.5,-0.6,-3.3,-1.2,-3.8,-1.3c-0.6,-0.1,-1.4,-0.5,-1.8,-0.8c-0.4,-0.3,-1.2,-0.5,-1.8,-0.5c-0.6,0,-1.5,-0.3,-2.2,-0.6c-0.6,-0.3,-1.5,-0.6,-1.9,-0.6c-0.4,0,-1.7,-0.3,-2.9,-0.8c-1.2,-0.4,-3,-1,-4.1,-1.2c-5.6,-1.4,-7,-1.7,-9.4,-2c-1.4,-0.2,-3.1,-0.6,-3.8,-0.8c-0.7,-0.2,-4.1,-0.6,-7.6,-0.9c-7.2,-0.5,-7.6,-0.6,-7.2,-2.7c0.1,-0.8,0.4,-3.9,0.6,-6.8c0.5,-8,2.9,-19.4,5.1,-24.3c0.3,-0.7,0.6,-1.5,0.6,-1.9c0,-0.3,0.3,-1.3,0.6,-2.1c0.4,-0.8,0.9,-2.1,1.1,-2.7c6.3,-15.2,16.1,-28,26.8,-35.2c1.8,-1.2,3.5,-2.2,3.7,-2.2c0.2,0,0.6,-0.3,0.9,-0.6c0.3,-0.3,0.8,-0.6,1.2,-0.6c0.4,0,0.9,-0.3,1.2,-0.6c0.3,-0.3,1.1,-0.7,1.9,-0.8c0.8,-0.2,1.7,-0.4,1.9,-0.6c0.4,-0.3,4,-1.1,7.6,-1.6c1.1,-0.2,2.1,-0.3,2.2,-0.3c0.1,0,2.1,1.9,4.5,4.3M39.7,317.5c-1.1,0.2,-2.8,2.2,-3.6,4.1c-0.3,0.8,-0.7,1.8,-0.9,2.2c-0.2,0.4,-0.7,1.9,-1.2,3.2c-0.5,1.3,-1.1,3.1,-1.5,3.9c-0.3,0.8,-0.8,2.2,-1.1,3c-1.5,4.2,-2.4,6.4,-2.9,7.7c-2.6,6.8,-3.4,8.9,-3.4,9.3c0,0.3,-0.2,0.7,-0.4,1c-0.2,0.2,-0.6,1,-0.8,1.8c-0.3,1.3,-2.4,6.9,-3.4,9.3c-0.3,0.7,-0.8,1.9,-1.2,2.7c-0.4,0.8,-0.6,1.7,-0.6,1.9c0,0.2,-0.3,1,-0.6,1.7c-3,6.4,-2.8,10.1,0.5,12.7c1,0.8,1.1,0.8,181,0.8h179.9l1.5,-1.4c3,-2.7,3,-4.1,0.2,-11.5c-0.7,-1.9,-1.3,-3.7,-1.3,-4c0,-0.3,-0.3,-0.9,-0.6,-1.3c-0.3,-0.4,-0.6,-1.1,-0.6,-1.4c0,-0.3,-0.6,-2.1,-1.4,-4c-0.8,-1.9,-1.4,-3.6,-1.4,-4c0,-0.3,-0.3,-1,-0.6,-1.4c-0.3,-0.4,-0.6,-1,-0.6,-1.3c0,-0.3,-0.2,-1.1,-0.5,-1.8c-0.3,-0.7,-0.9,-2.3,-1.4,-3.7c-0.5,-1.3,-1.2,-3.1,-1.5,-4c-0.3,-0.9,-0.8,-2.2,-1.1,-3c-1.9,-5.2,-2.3,-6.3,-2.8,-7.3c-0.3,-0.6,-0.6,-1.4,-0.6,-1.8c0,-0.4,-0.3,-1,-0.6,-1.5c-0.3,-0.4,-0.6,-1,-0.6,-1.3c0,-1.5,-3,-8,-4.3,-9.3l-1.4,-1.4h-159.7c-87.8,0,-160.1,0,-160.6,0.1" stroke="none" fill="#34ace0" fill-rule="evenodd"/><path id="path1" d="M62,19.5c-1.8,0.6,-2.7,1,-5.7,2.4c-6.9,3.1,-12.5,10.3,-15.2,19.4l-0.9,3v82.2v82.2l20,0.3c12.3,0.2,20.6,0.4,21.6,0.7c0.9,0.2,2.9,0.4,4.4,0.4c4.9,0,19.9,2.1,28.8,4c2.2,0.5,5,1,6.2,1.2c1.2,0.2,2.4,0.5,2.8,0.7c0.4,0.2,1.6,0.5,2.8,0.8c2.3,0.5,5.3,1.3,7.4,2c1.5,0.5,8.4,2.7,10,3.2c1.4,0.4,7.5,2.7,9.2,3.4c0.7,0.3,2.1,0.9,3.2,1.4c1.1,0.5,2.4,1,2.8,1.2c0.4,0.2,1.3,0.5,1.8,0.8c0.6,0.2,1.3,0.6,1.6,0.7c0.3,0.2,1.3,0.7,2.2,1c0.9,0.4,1.9,0.8,2.2,1c0.3,0.2,2,1.1,3.8,2c4.8,2.5,12.6,7.1,14.3,8.4c0.8,0.6,1.6,1.1,1.7,1.1c0.1,0,1.4,0.9,2.7,1.9c1.4,1,2.9,2.2,3.5,2.5c0.6,0.4,2.3,1.8,3.9,3.1l2.9,2.5l1.5,-1.1c1.8,-1.4,5.6,-4.3,6.8,-5.3c0.5,-0.4,1.6,-1.2,2.4,-1.7c0.8,-0.5,1.6,-1,1.7,-1.2c0.4,-0.5,10.9,-7,14.4,-8.9c6,-3.2,9.7,-5,10.2,-5c0.3,0,0.7,-0.3,1,-0.6c0.3,-0.3,0.9,-0.7,1.5,-0.8c0.6,-0.1,2.1,-0.8,3.5,-1.4c3.3,-1.5,9.7,-4,10.4,-4c0.3,0,0.7,-0.2,1,-0.4c0.2,-0.2,1,-0.6,1.8,-0.8c1.9,-0.5,5.2,-1.6,6,-2c0.3,-0.2,1.2,-0.4,2,-0.6c0.8,-0.1,2,-0.5,2.8,-0.8c1.6,-0.6,2.4,-0.8,11.2,-3c6.2,-1.5,14.1,-3,21.4,-4c1.5,-0.2,4.2,-0.6,5.8,-0.8c1.7,-0.2,5.4,-0.6,8.4,-0.8c3,-0.2,7.1,-0.5,9.2,-0.7c2.1,-0.2,11.3,-0.4,20.5,-0.4h16.7l-0.1,-83.3c-0.1,-88.4,0,-84.4,-1.9,-88.5c-0.4,-0.9,-0.8,-1.8,-0.8,-1.9c0,-2.5,-10.9,-13.4,-13.4,-13.4c-0.2,0,-1,-0.3,-1.9,-0.8c-4.7,-2.2,5.9,-2,-142,-2c-121.5,0,-136.2,0.1,-137.9,0.6M335.6,19.8c0,0.4,0.5,0.6,1.9,0.6c1.5,0,2,0.2,2.4,0.8c0.4,0.6,0.9,0.8,2.1,0.8c1.2,0,1.6,0.2,1.6,0.6c0,0.3,0.3,0.6,0.8,0.6c0.4,0,0.9,0.3,1,0.6c0.1,0.3,0.7,0.6,1.2,0.6c0.6,0,1,0.2,1,0.5c0,0.5,1.9,2.3,2.4,2.3c0.2,0,0.4,0.3,0.4,0.6c0,0.3,0.3,0.6,0.6,0.6c0.3,0,0.6,0.2,0.6,0.4c0,0.6,1.7,2.3,2.3,2.3c0.3,0,0.5,0.5,0.5,1.2c0,0.7,0.2,1.2,0.4,1.2c0.5,0,2,3.2,2,4.1c0,0.4,0.4,0.9,0.8,1.2c0.6,0.4,0.8,0.9,0.8,2.8c0,1.7,0.2,2.4,0.6,2.5c0.5,0.2,0.6,9.7,0.6,82v81.7l-22.7,0.1c-16,0.1,-22.9,0.2,-23.3,0.6c-0.3,0.3,-3,0.5,-6.1,0.7c-4.4,0.2,-5.7,0.4,-6,0.9c-0.4,0.5,-1.3,0.6,-4.3,0.6c-2.9,0,-3.9,0.1,-4.3,0.6c-0.4,0.4,-1.3,0.6,-3.4,0.6c-1.7,0,-3.2,0.2,-3.7,0.5c-0.4,0.3,-2,0.7,-3.6,0.8c-1.8,0.2,-3,0.5,-3.2,0.9c-0.3,0.4,-1.1,0.6,-2.7,0.6c-1.6,0,-2.3,0.2,-2.5,0.6c-0.2,0.4,-0.8,0.6,-2,0.6c-1,0,-2.2,0.3,-2.7,0.6c-0.5,0.3,-1.8,0.7,-2.8,0.8c-1.1,0.2,-2,0.5,-2.1,0.8c-0.1,0.4,-0.8,0.6,-2,0.6c-1.2,0,-1.8,0.2,-2,0.6c-0.1,0.4,-0.8,0.6,-1.7,0.6c-0.8,0,-1.7,0.3,-2,0.6c-0.3,0.3,-1.2,0.7,-2.2,0.8c-1,0.1,-1.9,0.5,-2,0.8c-0.1,0.4,-0.8,0.6,-1.6,0.6c-0.8,0,-1.6,0.3,-1.9,0.6c-0.3,0.3,-1,0.6,-1.6,0.6c-0.6,0,-1.3,0.3,-1.6,0.6c-0.3,0.3,-0.7,0.6,-1,0.6c-0.3,0,-1.2,0.4,-2,0.8c-0.9,0.4,-2,0.8,-2.4,0.8c-0.5,0,-1,0.3,-1.1,0.6c-0.1,0.3,-0.6,0.6,-1,0.6c-0.4,0,-1,0.2,-1.3,0.6c-0.3,0.3,-1.1,0.7,-1.8,0.8c-0.7,0.2,-1.3,0.5,-1.5,0.8c-0.1,0.3,-0.7,0.6,-1.4,0.6c-0.8,0,-1.2,0.2,-1.2,0.6c0,0.3,-0.3,0.6,-0.8,0.6c-0.4,0,-1,0.3,-1.4,0.6c-0.3,0.3,-0.9,0.6,-1.2,0.6c-0.3,0,-1,0.4,-1.4,0.8c-0.4,0.4,-1,0.8,-1.4,0.8c-0.3,0,-0.8,0.3,-1,0.6c-0.3,0.3,-0.8,0.6,-1.2,0.6c-0.4,0,-0.8,0.3,-0.8,0.6c0,0.3,-0.4,0.6,-0.8,0.6c-0.4,0,-1.2,0.4,-1.6,0.8c-0.4,0.4,-1,0.8,-1.4,0.8c-0.3,0,-0.8,0.3,-1,0.6c-0.3,0.3,-0.8,0.6,-1.1,0.6c-0.3,0,-0.7,0.3,-0.8,0.6c-0.1,0.3,-0.5,0.6,-0.7,0.6c-0.3,0,-0.8,0.4,-1.2,0.8c-0.4,0.4,-1,0.8,-1.3,0.8c-0.3,0,-0.7,0.3,-0.8,0.6c-0.1,0.3,-0.4,0.6,-0.6,0.6c-0.5,0,-3.6,2.1,-3.6,2.5c0,0.2,-0.3,0.3,-0.6,0.3c-0.3,0,-0.6,0.3,-0.6,0.6c0,0.3,-0.3,0.6,-0.6,0.6c-0.3,0,-0.7,0.3,-0.8,0.6c-0.1,0.3,-0.5,0.6,-0.7,0.6c-0.3,0,-0.8,0.4,-1.2,0.8c-0.4,0.4,-1,0.8,-1.3,0.8c-0.3,0,-0.5,0.3,-0.5,0.6c0,0.4,-0.4,0.2,-1.2,-0.6c-0.7,-0.7,-1.3,-1.2,-1.5,-1.2c-0.2,0,-0.7,-0.4,-1.1,-0.8c-0.4,-0.4,-0.9,-0.8,-1.1,-0.8c-0.2,0,-0.9,-0.6,-1.6,-1.4c-0.7,-0.8,-1.5,-1.4,-1.7,-1.4c-0.3,0,-0.6,-0.3,-0.7,-0.6c-0.1,-0.3,-0.7,-0.6,-1.2,-0.6c-0.6,0,-1,-0.2,-1,-0.6c0,-0.3,-0.2,-0.6,-0.4,-0.6c-0.2,0,-0.8,-0.4,-1.2,-0.8c-0.4,-0.4,-1.2,-0.8,-1.6,-0.8c-0.4,0,-0.8,-0.3,-0.8,-0.6c0,-0.3,-0.2,-0.6,-0.6,-0.6c-0.3,0,-0.8,-0.3,-1,-0.6c-0.3,-0.3,-0.9,-0.6,-1.4,-0.6c-0.6,0,-1,-0.2,-1,-0.6c0,-0.3,-0.9,-1,-1.9,-1.5c-1,-0.5,-2,-1.2,-2.2,-1.4c-0.2,-0.3,-0.7,-0.5,-1.2,-0.5c-0.5,0,-1.2,-0.4,-1.6,-0.8c-0.4,-0.4,-1,-0.8,-1.4,-0.8c-0.4,0,-0.9,-0.3,-1,-0.6c-0.1,-0.4,-0.7,-0.6,-1.4,-0.6c-0.8,0,-1.2,-0.2,-1.2,-0.6c0,-0.4,-0.4,-0.6,-1.2,-0.6c-0.8,0,-1.2,-0.2,-1.2,-0.6c0,-0.3,-0.6,-0.7,-1.4,-0.8c-0.8,-0.1,-1.5,-0.5,-1.6,-0.8c-0.1,-0.3,-0.7,-0.6,-1.4,-0.6c-0.7,0,-1.3,-0.3,-1.4,-0.6c-0.1,-0.3,-0.7,-0.6,-1.3,-0.6c-0.6,0,-1.1,-0.3,-1.2,-0.6c-0.1,-0.3,-1,-0.7,-2,-0.8c-1,-0.1,-1.8,-0.5,-2,-0.8c-0.1,-0.3,-0.7,-0.6,-1.4,-0.6c-0.6,0,-1.4,-0.3,-1.7,-0.6c-0.3,-0.3,-1.2,-0.6,-2,-0.6c-1.1,0,-1.6,-0.2,-1.6,-0.6c0,-0.4,-0.6,-0.7,-2,-0.8c-1.1,-0.1,-2.1,-0.5,-2.2,-0.8c-0.1,-0.3,-0.8,-0.6,-1.5,-0.6c-0.7,0,-1.5,-0.3,-1.8,-0.6c-0.4,-0.4,-1.4,-0.6,-2.6,-0.6c-1.4,0,-2,-0.2,-2,-0.6c0,-0.4,-0.6,-0.7,-1.9,-0.9c-1,-0.2,-2.3,-0.5,-2.7,-0.8c-0.4,-0.3,-1.6,-0.5,-2.7,-0.5c-1.3,0,-1.9,-0.2,-2.1,-0.6c-0.2,-0.4,-0.9,-0.6,-2.6,-0.6c-1.7,0,-2.5,-0.2,-2.7,-0.6c-0.2,-0.4,-1.3,-0.7,-3.3,-0.9c-1.6,-0.2,-3.2,-0.5,-3.5,-0.8c-0.3,-0.3,-1.6,-0.5,-3.5,-0.5c-2.2,0,-3,-0.1,-3.2,-0.6c-0.2,-0.5,-1.1,-0.6,-4.6,-0.6c-3.4,0,-4.4,-0.1,-4.4,-0.5c0,-0.7,-3.2,-1.1,-8.4,-1.1c-2.5,0,-3.6,-0.2,-3.7,-0.5c-0.1,-0.4,-5.2,-0.5,-23.2,-0.6l-23.1,-0.1v-80.4c0,-68.4,0.1,-80.4,0.6,-80.4c0.8,0,1,-0.9,1,-4c0,-2.1,0.1,-2.8,0.6,-3c0.4,-0.2,0.6,-0.8,0.6,-2c0,-1.3,0.2,-1.8,0.6,-1.8c0.4,0,0.6,-0.4,0.6,-1.2c0,-0.7,0.2,-1.2,0.5,-1.2c0.3,0,1,-0.9,1.5,-2c0.5,-1.1,1.2,-2,1.5,-2c0.3,0,0.5,-0.4,0.5,-0.8c0,-0.4,0.2,-0.8,0.5,-0.8c0.3,0,1,-0.5,1.5,-1.1c0.5,-0.6,1.5,-1.3,2.1,-1.6c0.6,-0.3,1.1,-0.7,1.1,-0.9c0,-0.2,0.3,-0.4,0.6,-0.4c0.3,0,0.7,-0.3,0.8,-0.6c0.1,-0.3,0.7,-0.6,1.2,-0.6c0.5,0,1.1,-0.3,1.2,-0.6c0.1,-0.3,0.7,-0.6,1.4,-0.6c0.9,0,1.3,-0.2,1.4,-0.8c0.2,-0.7,0.5,-0.8,2.6,-0.8c1.7,0,2.4,-0.2,2.6,-0.6c0.4,-0.9,270.1,-0.9,270.1,0M195.5,27.5c-0.4,0.1,-0.7,0.4,-0.7,0.8c0,0.5,-0.8,0.6,-4,0.6c-3.3,0,-4,0.1,-4,0.6c0,0.5,-0.5,0.6,-2,0.6c-1.5,0,-2,0.1,-2,0.6c0,0.4,-0.4,0.6,-1.6,0.6c-1.2,0,-1.7,0.2,-2.1,0.8c-0.3,0.5,-0.9,0.8,-1.6,0.8c-0.6,0,-1.2,0.3,-1.3,0.6c-0.1,0.3,-0.7,0.6,-1.3,0.6c-0.6,0,-1.1,0.3,-1.2,0.6c-0.1,0.3,-0.7,0.7,-1.4,0.8c-0.7,0.1,-1.2,0.5,-1.2,0.8c0,0.3,-0.3,0.6,-0.8,0.6c-0.4,0,-0.8,0.3,-0.8,0.6c0,0.3,-0.3,0.6,-0.6,0.6c-0.3,0,-0.7,0.3,-0.8,0.6c-0.1,0.3,-0.5,0.6,-0.8,0.6c-0.9,0,-6.9,6.2,-6.9,7.2c0,0.5,-0.2,0.8,-0.5,0.8c-0.5,0,-2.3,1.9,-2.3,2.4c0,0.2,-0.3,0.5,-0.6,0.6c-0.3,0.1,-0.6,0.6,-0.6,1.2c0,0.6,-0.3,1,-0.8,1.2c-0.6,0.2,-0.8,0.6,-0.8,1.4c0,0.6,-0.3,1.2,-0.6,1.4c-0.4,0.1,-0.6,0.7,-0.6,1.4c0,0.8,-0.2,1.2,-0.6,1.2c-0.4,0,-0.6,0.4,-0.6,1.2c0,0.7,-0.4,1.6,-0.8,2c-0.5,0.5,-0.8,1.3,-0.8,2c0,0.7,-0.3,1.5,-0.6,1.8c-0.4,0.4,-0.6,1.5,-0.6,3.9c0,2.6,-0.1,3.4,-0.6,3.6c-0.5,0.2,-0.6,1.4,-0.6,7.2c0,6,0.1,7,0.6,7c0.5,0,0.6,0.6,0.6,3.2c0,2.5,0.1,3.3,0.6,3.4c0.4,0.2,0.6,0.8,0.6,2c0,1.5,0.1,1.8,0.8,2c0.6,0.2,0.8,0.5,0.8,1.7c0,0.8,0.3,1.7,0.6,2c0.3,0.3,0.6,0.9,0.6,1.4c0,0.5,0.2,1,0.4,1.2c0.2,0.1,0.7,0.9,1,1.6c0.3,0.8,0.8,1.4,1,1.4c0.2,0,0.4,0.4,0.4,0.8c0,0.4,0.3,0.8,0.6,0.8c0.3,0,0.6,0.3,0.6,0.7c0,0.4,0.6,1.4,1.4,2.3c0.8,0.8,1.4,1.7,1.4,1.9c0,0.2,0.3,0.3,0.6,0.3c0.3,0,0.6,0.3,0.6,0.6c0,0.3,0.3,0.6,0.6,0.6c0.3,0,0.6,0.3,0.6,0.6c0,0.4,0.4,0.7,0.8,0.8c0.4,0.1,0.8,0.5,0.8,0.8c0,0.3,0.3,0.6,0.6,0.6c0.3,0,0.6,0.3,0.6,0.6c0,0.3,0.3,0.6,0.6,0.6c0.3,0,0.6,0.3,0.6,0.6c0,0.3,0.3,0.7,0.8,0.8c0.4,0.1,0.9,0.5,1,0.8c0.1,0.3,0.7,0.6,1.2,0.6c0.6,0,1,0.2,1,0.6c0,0.3,0.4,0.6,0.8,0.6c0.4,0,0.8,0.3,0.8,0.6c0,0.3,0.5,0.7,1.2,0.8c0.6,0.1,1.3,0.5,1.4,0.8c0.1,0.3,0.7,0.6,1.4,0.6c0.8,0,1.2,0.2,1.2,0.6c0,0.4,0.4,0.6,1.4,0.6c0.9,0,1.4,0.2,1.4,0.6c0,0.6,1.2,1,2.9,1c0.7,0,1.1,0.2,1.1,0.6c0,0.5,0.6,0.6,2.6,0.6c2,0,2.6,0.1,2.6,0.6c0,0.5,1.4,0.6,10.4,0.6c8.8,0,10.4,-0.1,10.6,-0.6c0.2,-0.4,0.9,-0.6,2.7,-0.6c1.8,0,2.5,-0.2,2.7,-0.6c0.1,-0.4,0.7,-0.6,1.6,-0.6c1.7,0,2.6,-0.3,2.6,-1c0,-0.4,0.4,-0.6,1.2,-0.6c0.8,0,1.2,-0.2,1.2,-0.6c0,-0.4,0.4,-0.6,1.4,-0.6c1,0,1.4,-0.2,1.4,-0.6c0,-0.3,0.3,-0.6,0.8,-0.6c1.2,0,2,-0.4,2,-1c0,-0.3,0.3,-0.6,0.8,-0.6c0.4,0,1,-0.3,1.4,-0.6c0.3,-0.3,0.7,-0.6,0.9,-0.6c0.5,0,2.2,-1.8,2.2,-2.3c0,-0.3,0.3,-0.5,0.6,-0.5c0.3,0,0.6,-0.3,0.6,-0.6c0,-0.3,0.3,-0.6,0.7,-0.6c1.1,0,3.3,-2.1,3.3,-3.1c0,-0.5,0.2,-0.9,0.4,-0.9c0.6,0,2.3,-1.7,2.3,-2.3c0,-0.3,0.3,-0.5,0.6,-0.5c0.3,0,0.6,-0.3,0.6,-0.6c0,-0.3,0.3,-0.7,0.6,-0.8c0.3,-0.1,0.7,-0.7,0.8,-1.4c0.1,-0.6,0.5,-1.2,0.8,-1.2c0.4,0,0.6,-0.4,0.6,-1.2c0,-0.8,0.2,-1.2,0.6,-1.2c0.4,0,0.6,-0.4,0.6,-1.4c0,-1,0.2,-1.4,0.8,-1.6c0.6,-0.1,0.8,-0.5,0.8,-1.4c0,-0.7,0.3,-1.3,0.6,-1.4c0.4,-0.2,0.6,-0.8,0.6,-2c0,-1.3,0.2,-1.8,0.6,-1.8c0.5,0,0.6,-0.6,0.6,-2.6c0,-2,0.1,-2.7,0.7,-3c1.4,-0.8,1.2,-19.2,-0.1,-19.2c-0.4,0,-0.6,-0.6,-0.6,-2.6c0,-2,-0.2,-2.7,-0.6,-2.8c-0.4,-0.2,-0.6,-0.8,-0.6,-1.9c0,-1.2,-0.2,-1.8,-0.6,-1.9c-0.3,-0.1,-0.6,-0.6,-0.6,-1.1c0,-1.5,-0.5,-2.7,-1,-2.7c-0.3,0,-0.6,-0.4,-0.6,-1c0,-0.5,-0.3,-1.2,-0.6,-1.4c-0.3,-0.3,-0.6,-0.8,-0.6,-1.1c0,-0.3,-0.3,-0.7,-0.6,-0.8c-0.3,-0.1,-0.7,-0.7,-0.8,-1.4c-0.1,-0.7,-0.5,-1.2,-0.8,-1.2c-0.3,0,-0.6,-0.3,-0.6,-0.6c0,-0.3,-0.3,-0.7,-0.6,-0.8c-0.3,-0.1,-0.6,-0.4,-0.6,-0.7c0,-0.7,-1.8,-3.1,-2.3,-3.1c-0.3,0,-0.5,-0.2,-0.5,-0.5c0,-0.5,-3.1,-3.5,-3.6,-3.5c-0.2,0,-0.4,-0.3,-0.4,-0.6c0,-0.3,-0.3,-0.7,-0.7,-0.9c-0.4,-0.1,-0.9,-0.5,-1.2,-0.8c-0.3,-0.3,-0.9,-0.5,-1.3,-0.5c-0.4,0,-0.8,-0.3,-0.8,-0.6c0,-0.3,-0.2,-0.6,-0.5,-0.6c-0.3,0,-0.7,-0.4,-1,-0.8c-0.3,-0.5,-0.9,-0.8,-1.5,-0.8c-0.6,0,-1,-0.2,-1,-0.6c0,-0.4,-0.4,-0.6,-1.2,-0.6c-0.8,0,-1.2,-0.2,-1.2,-0.6c0,-0.4,-0.4,-0.6,-1.4,-0.6c-1,0,-1.4,-0.2,-1.6,-0.8c-0.2,-0.6,-0.5,-0.8,-1.4,-0.8c-0.7,0,-1.4,-0.3,-1.7,-0.6c-0.3,-0.4,-1.2,-0.6,-2.6,-0.6c-1.6,0,-2.2,-0.1,-2.2,-0.6c0,-0.5,-0.7,-0.6,-4,-0.6c-3.2,0,-4,-0.1,-4,-0.6c0,-1,-6.9,-1.5,-9.7,-0.8M211.2,29.8c9.5,2.7,14.4,5,20.3,9.6c1.6,1.2,8.8,8.7,9.7,10c2.9,4.3,5.9,9.9,5.9,10.7c0,0.2,0.3,0.9,0.6,1.6c2.4,5.3,3.9,16,3,22.1c-1,7.3,-1.1,8.1,-2.4,11.8c-4.8,14.4,-15.5,25.4,-30.6,31.6c-8.4,3.4,-24.7,4,-31.2,1.2c-0.4,-0.2,-1.3,-0.5,-2,-0.6c-1.3,-0.3,-2,-0.6,-7,-3c-4.8,-2.3,-7.7,-4.3,-12,-8.2c-2.2,-1.9,-7.6,-8.2,-7.6,-8.7c0,-0.2,-0.5,-1.1,-1.2,-2c-1.4,-2.1,-3.7,-7,-4.6,-9.7c-0.3,-1.1,-0.9,-2.9,-1.3,-4c-1.8,-5.6,-1.9,-20.4,-0.3,-24.6c0.2,-0.5,0.8,-2.3,1.3,-3.8c1,-3.2,2.9,-7.6,4.4,-10.2c4.6,-7.8,13.4,-16,21.2,-19.6c3.5,-1.7,4.2,-1.9,7,-2.8c4.8,-1.5,5.4,-1.7,8.1,-2c4.1,-0.5,15.9,-0.1,18.5,0.6M145,117c-0.4,0.3,-1.3,0.6,-2,0.6c-1.7,0,-2.5,0.4,-2.5,1.1c0,0.4,-0.5,0.6,-1.4,0.6c-1,0,-1.4,0.2,-1.4,0.6c0,0.4,-0.4,0.6,-1.2,0.6c-0.6,0,-1.3,0.2,-1.4,0.5c-0.1,0.3,-0.8,0.7,-1.4,0.8c-0.7,0.1,-1.2,0.5,-1.2,0.9c0,0.3,-0.3,0.6,-0.6,0.6c-0.3,0,-0.7,0.3,-0.8,0.6c-0.1,0.3,-0.5,0.6,-0.9,0.6c-0.4,0,-1.4,0.6,-2.2,1.4c-0.9,0.8,-1.7,1.4,-1.9,1.4c-0.2,0,-0.3,0.3,-0.3,0.6c0,0.3,-0.3,0.6,-0.6,0.6c-0.3,0,-0.6,0.3,-0.6,0.6c0,0.3,-0.3,0.6,-0.6,0.6c-0.3,0,-0.6,0.3,-0.6,0.6c0,0.3,-0.3,0.6,-0.6,0.6c-0.4,0,-0.7,0.4,-0.8,0.8c-0.1,0.4,-0.5,0.8,-0.8,0.8c-0.3,0,-0.6,0.3,-0.6,0.6c0,0.3,-0.3,0.6,-0.6,0.6c-0.3,0,-0.6,0.2,-0.6,0.4c0,0.2,-0.5,1,-1.2,1.6c-0.7,0.7,-1.3,1.6,-1.4,2.2c-0.1,0.5,-0.5,1,-0.8,1c-0.3,0,-0.6,0.4,-0.6,0.8c0,0.5,-0.3,0.8,-0.6,0.8c-0.3,0,-0.7,0.3,-0.9,0.7c-0.1,0.4,-0.5,0.9,-0.8,1.2c-0.3,0.3,-0.5,0.9,-0.5,1.3c0,0.4,-0.3,0.8,-0.6,0.8c-0.4,0,-0.6,0.4,-0.6,1.1c0,0.6,-0.3,1.3,-0.8,1.6c-0.4,0.3,-1.1,1.3,-1.6,2.3c-0.5,1,-1,1.8,-1.2,1.8c-0.2,0,-0.4,0.5,-0.4,1.2c0,0.7,-0.3,1.3,-0.6,1.4c-0.3,0.1,-0.7,0.7,-0.8,1.4c-0.1,0.6,-0.5,1.4,-0.8,1.6c-0.3,0.3,-0.6,1.2,-0.6,2c0,1.1,-0.2,1.6,-0.6,1.6c-0.5,0,-0.6,0.5,-0.6,2c0,1.6,-0.1,2,-0.8,2.2c-0.6,0.2,-0.8,0.5,-0.8,1.9c0,1.1,-0.2,1.7,-0.6,1.9c-0.4,0.2,-0.6,0.8,-0.6,2.2c0,1.5,-0.1,2,-0.6,2c-0.5,0,-0.6,0.5,-0.6,2.5c0,1.9,-0.2,2.6,-0.7,3c-0.5,0.4,-0.7,1.3,-0.8,4.6c-0.1,3,-0.3,4.2,-0.7,4.5c-0.4,0.3,-0.6,1.8,-0.6,7.3v7h5.4c4.3,0,5.4,0.1,5.4,0.6c0,0.8,0.9,1,4.6,1c2.7,0,3.4,0.1,3.4,0.6c0,0.5,0.6,0.6,3.2,0.6c2.4,0,3.2,0.1,3.4,0.6c0.2,0.4,0.8,0.6,2.1,0.6c1.3,0,2,0.2,2.4,0.7c0.3,0.4,1.3,0.7,2.7,0.8c1.6,0.1,2.3,0.4,2.3,0.7c0,0.4,0.6,0.6,2,0.6c1.5,0,2,0.1,2,0.6c0,0.4,0.5,0.6,1.9,0.6c1.2,0,2,0.2,2.3,0.6c0.2,0.3,1.2,0.7,2,0.9c0.9,0.1,1.7,0.5,1.9,0.8c0.2,0.3,1,0.5,2.1,0.5c1.3,0,1.8,0.2,1.8,0.6c0,0.4,0.4,0.6,1.2,0.6c0.7,0,1.3,0.3,1.5,0.6c0.2,0.3,1.1,0.7,2,0.9c0.9,0.1,1.9,0.5,2.1,0.8c0.3,0.3,0.8,0.5,1.2,0.5c0.4,0,1,0.3,1.4,0.6c0.3,0.3,1.3,0.6,2.2,0.6c1.1,0,1.6,0.2,1.6,0.6c0,0.4,0.5,0.7,1.2,0.8c0.7,0.1,1.4,0.5,1.6,0.8c0.3,0.3,0.9,0.6,1.4,0.6c0.5,0,1.1,0.3,1.4,0.6c0.3,0.3,0.9,0.6,1.4,0.6c0.5,0,1,0.3,1.1,0.6c0.2,0.4,0.8,0.6,1.8,0.6c1.2,0,1.6,0.2,1.8,0.8c0.2,0.6,0.6,0.8,1.4,0.8c0.6,0,1.2,0.3,1.4,0.6c0.1,0.4,0.7,0.6,1.4,0.6c0.8,0,1.2,0.2,1.2,0.6c0,0.3,0.2,0.6,0.5,0.6c0.3,0,0.8,0.4,1.2,0.8c0.4,0.4,1,0.8,1.4,0.8c0.4,0,1.1,0.3,1.5,0.6c0.4,0.3,1.1,0.6,1.5,0.6c0.4,0,0.7,0.3,0.7,0.6c0,0.4,0.4,0.6,1.2,0.6c0.8,0,1.2,0.2,1.4,0.8c0.2,0.6,0.5,0.8,1.4,0.8c0.8,0,1.2,0.2,1.2,0.6c0,0.3,0.3,0.6,0.6,0.6c0.3,0,0.7,0.3,0.8,0.6c0.1,0.4,0.7,0.6,1.4,0.6c0.7,0,1.2,0.2,1.2,0.4c0,0.5,1.6,2.3,2.1,2.3c0.2,0,0.8,0.5,1.4,1.2c1.6,1.7,5.3,2.1,5.3,0.6c0,-0.3,0.4,-0.5,0.8,-0.5c0.4,0,0.8,-0.3,0.8,-0.6c0,-0.3,0.3,-0.6,0.6,-0.6c0.3,0,0.6,-0.2,0.6,-0.5c0,-0.3,0.5,-0.7,1.1,-1c2.2,-1,2.9,-1.5,2.9,-2c0,-0.3,0.3,-0.5,0.8,-0.5c0.4,0,1,-0.3,1.4,-0.6c0.3,-0.3,0.9,-0.6,1.2,-0.6c0.4,0,0.6,-0.3,0.6,-0.8c0,-0.6,0.3,-0.8,1.2,-0.8c0.7,0,1.3,-0.2,1.4,-0.6c0.1,-0.3,0.7,-0.6,1.4,-0.6c0.8,0,1.2,-0.2,1.2,-0.6c0,-0.3,0.3,-0.6,0.8,-0.6c1.2,0,2,-0.4,2,-1c0,-0.3,0.4,-0.6,1.2,-0.6c0.7,0,1.3,-0.3,1.4,-0.6c0.1,-0.3,0.6,-0.6,1,-0.6c0.4,0,1,-0.3,1.3,-0.6c0.3,-0.3,0.9,-0.6,1.4,-0.6c0.5,0,1.2,-0.4,1.4,-0.8c0.3,-0.5,0.9,-0.8,1.6,-0.8c0.6,0,1.2,-0.3,1.3,-0.6c0.1,-0.3,0.7,-0.6,1.3,-0.6c0.6,0,1.1,-0.3,1.3,-0.6c0.1,-0.3,0.7,-0.6,1.4,-0.6c0.7,0,1.3,-0.3,1.4,-0.6c0.1,-0.3,0.7,-0.6,1.2,-0.6c0.5,0,1.2,-0.4,1.5,-0.8c0.4,-0.6,0.9,-0.8,2.2,-0.8c1.2,0,1.7,-0.2,1.7,-0.6c0,-0.4,0.4,-0.6,1.2,-0.6c0.7,0,1.3,-0.2,1.4,-0.6c0.1,-0.3,0.7,-0.6,1.3,-0.6c1.7,0,2.9,-0.4,2.9,-1c0,-0.3,0.4,-0.6,1.2,-0.6c0.7,0,1.3,-0.2,1.4,-0.6c0.1,-0.4,0.8,-0.6,1.7,-0.6c0.8,0,1.7,-0.2,2,-0.5c0.3,-0.3,1.2,-0.7,2.1,-0.8c0.9,-0.1,1.9,-0.5,2.1,-0.9c0.3,-0.4,1.1,-0.6,2.1,-0.6c1.1,0,1.7,-0.2,1.9,-0.6c0.2,-0.4,0.8,-0.6,2,-0.6c1,0,1.9,-0.2,2.1,-0.5c0.2,-0.3,1.3,-0.6,2.5,-0.7c1.4,-0.1,2.3,-0.4,2.6,-0.9c0.3,-0.5,1.1,-0.7,2.7,-0.7c1.6,0,2.3,-0.2,2.5,-0.6c0.2,-0.4,0.9,-0.6,2.7,-0.6c1.8,0,2.6,-0.2,2.7,-0.6c0.2,-0.4,1.3,-0.6,4.3,-0.7c3.3,-0.1,4.2,-0.3,4.6,-0.8c0.4,-0.6,1.2,-0.7,5.2,-0.7h4.7v-8.4c0,-7.1,-0.1,-8.4,-0.6,-8.6c-0.5,-0.2,-0.6,-1,-0.6,-3.9c0,-3.3,-0.1,-3.7,-0.8,-3.9c-0.7,-0.2,-0.8,-0.5,-0.8,-2.7c0,-1.9,-0.2,-2.6,-0.6,-2.7c-0.4,-0.2,-0.6,-0.8,-0.6,-2.1c0,-1.3,-0.2,-1.9,-0.6,-2.1c-0.4,-0.1,-0.6,-0.8,-0.6,-1.7c0,-0.8,-0.2,-1.7,-0.5,-2c-0.3,-0.3,-0.6,-1.2,-0.8,-2.1c-0.1,-0.9,-0.5,-1.8,-0.9,-2c-0.3,-0.2,-0.6,-0.9,-0.6,-1.5c0,-0.8,-0.2,-1.2,-0.6,-1.2c-0.4,0,-0.6,-0.4,-0.6,-1.2c0,-0.7,-0.2,-1.3,-0.6,-1.4c-0.3,-0.1,-0.6,-0.6,-0.6,-1c0,-1.2,-0.4,-2,-1,-2c-0.4,0,-0.6,-0.4,-0.6,-1.2c0,-0.8,-0.2,-1.2,-0.6,-1.2c-0.3,0,-0.6,-0.4,-0.6,-0.8c0,-1,-1.6,-3.2,-2.3,-3.2c-0.3,0,-0.5,-0.5,-0.5,-1.2c0,-0.7,-0.2,-1.3,-0.6,-1.4c-0.3,-0.1,-0.6,-0.5,-0.6,-0.8c0,-0.3,-0.3,-0.6,-0.6,-0.6c-0.3,0,-0.6,-0.4,-0.6,-0.8c0,-0.4,-0.4,-1.2,-0.8,-1.6c-0.4,-0.4,-0.8,-1,-0.8,-1.2c0,-0.2,-0.3,-0.4,-0.6,-0.4c-0.3,0,-0.6,-0.2,-0.6,-0.5c0,-0.6,-1.7,-2.3,-2.3,-2.3c-0.2,0,-0.4,-0.4,-0.4,-0.8c0,-1.1,-3.3,-4.4,-4.4,-4.4c-0.4,0,-0.8,-0.2,-0.8,-0.5c0,-0.6,-1.7,-2.3,-2.3,-2.3c-0.2,0,-0.4,-0.3,-0.4,-0.6c0,-0.3,-0.2,-0.6,-0.6,-0.6c-0.3,0,-0.8,-0.3,-1,-0.6c-0.3,-0.3,-0.9,-0.6,-1.4,-0.6c-0.6,0,-1,-0.3,-1.1,-0.8c-0.1,-0.5,-0.5,-0.8,-1.2,-0.8c-0.7,0,-1,-0.2,-1,-0.6c0,-0.3,-0.3,-0.6,-0.8,-0.6c-0.4,0,-0.9,-0.3,-1,-0.6c-0.2,-0.4,-0.8,-0.6,-1.8,-0.6c-1.2,0,-1.7,-0.2,-2,-0.8c-0.3,-0.6,-0.8,-0.8,-2.2,-0.8c-1.3,0,-1.8,-0.2,-1.8,-0.6c0,-0.5,-0.8,-0.6,-5.2,-0.6c-5.7,0,-7.6,0.8,-7.6,3.1c0,0.6,-0.2,0.9,-0.8,0.9c-0.4,0,-0.8,0.3,-0.8,0.6c0,0.3,-0.3,0.6,-0.6,0.6c-0.3,0,-0.6,0.4,-0.6,0.8c0,0.6,-0.3,0.8,-1,0.8c-0.6,0,-1.1,0.3,-1.2,0.6c-0.1,0.3,-0.5,0.6,-0.8,0.6c-0.3,0,-0.7,0.3,-0.8,0.6c-0.1,0.3,-0.5,0.6,-0.8,0.6c-0.3,0,-0.6,0.2,-0.6,0.5c0,0.3,-0.5,0.7,-1.1,1c-2.2,1,-2.9,1.5,-2.9,2c0,0.3,-0.4,0.5,-1,0.5c-0.5,0,-1.1,0.2,-1.2,0.4c-0.1,0.2,-0.9,0.7,-1.6,1c-0.8,0.3,-1.4,0.8,-1.4,1c0,0.2,-0.5,0.4,-1.2,0.4c-0.7,0,-1.3,0.2,-1.4,0.6c-0.1,0.3,-0.7,0.6,-1.4,0.6c-0.7,0,-1.3,0.3,-1.4,0.6c-0.1,0.3,-0.7,0.6,-1.3,0.6c-1.7,0,-2.9,0.4,-2.9,1c0,0.4,-0.7,0.6,-2.6,0.6c-2,0,-2.6,0.1,-2.6,0.6c0,0.5,-1.4,0.6,-10.2,0.6c-8.7,0,-10.2,-0.1,-10.4,-0.6c-0.2,-0.4,-0.9,-0.6,-2.5,-0.6c-1.7,0,-2.4,-0.2,-2.8,-0.7c-0.3,-0.4,-1.3,-0.7,-2.7,-0.8c-1.6,-0.1,-2.3,-0.4,-2.3,-0.7c0,-0.4,-0.5,-0.6,-1.4,-0.6c-1,0,-1.4,-0.2,-1.4,-0.6c0,-0.4,-0.4,-0.6,-1.2,-0.6c-0.7,0,-1.3,-0.3,-1.4,-0.6c-0.1,-0.3,-0.7,-0.7,-1.4,-0.8c-0.6,-0.1,-1.2,-0.5,-1.4,-0.8c-0.1,-0.3,-0.7,-0.6,-1.2,-0.6c-0.5,0,-1.1,-0.3,-1.2,-0.6c-0.1,-0.3,-0.5,-0.6,-0.8,-0.6c-0.3,0,-0.6,-0.2,-0.6,-0.4c0,-0.2,-0.5,-0.6,-1.1,-0.9c-0.6,-0.3,-1.2,-0.7,-1.4,-1c-0.2,-0.3,-0.6,-0.5,-0.9,-0.5c-0.3,0,-0.6,-0.3,-0.6,-0.6c0,-0.3,-0.3,-0.6,-0.6,-0.6c-0.3,0,-0.6,-0.3,-0.6,-0.6c0,-0.3,-0.4,-0.6,-0.8,-0.6c-0.4,0,-0.8,-0.2,-0.8,-0.4c0,-0.2,-1.2,-1.5,-2.6,-3c-1.4,-1.4,-2.6,-2.8,-2.6,-3c0,-0.7,-10,-0.6,-11,0.1M157,120.1c4.5,4.6,5.5,5.5,10.8,9c1.1,0.7,2.2,1.5,2.4,1.6c0.2,0.2,0.9,0.5,1.4,0.8c0.6,0.3,1.3,0.6,1.6,0.8c0.3,0.2,1.2,0.6,2,1c3.8,1.7,5.2,2.3,5.7,2.3c0.3,0,1.1,0.3,1.7,0.6c0.6,0.3,1.5,0.6,2,0.6c0.5,0,1.6,0.3,2.5,0.6c5,1.8,21.1,1.9,25.6,0.2c0.6,-0.2,1.9,-0.6,2.9,-0.8c8.4,-1.6,19.6,-8.3,27.8,-16.7c2.9,-3,3.4,-3.3,4.7,-3.3c1.9,0,8.5,1.4,10.2,2.2c0.7,0.3,1.4,0.6,1.6,0.6c0.6,0,5.9,2.9,6,3.3c0.1,0.2,0.4,0.3,0.7,0.3c0.6,0,6.7,4.7,9.5,7.3c1.5,1.4,4.3,4.6,7.7,8.7c0.8,1,2.3,3.2,2.3,3.5c0,0.1,0.5,0.9,1.2,1.7c1.7,2.1,5.2,8.7,7.5,14.1c0.3,0.8,0.9,1.9,1.2,2.5c0.3,0.6,0.6,1.4,0.6,1.8c0,0.4,0.4,1.4,0.8,2.3c0.4,0.9,0.8,1.9,0.8,2.3c0,0.4,0.3,1.3,0.6,2c1,2.3,2.4,8.5,3.1,13.3c0.2,1.5,0.6,3.6,0.8,4.6c0.7,3.1,1,12.3,0.4,13c-0.4,0.5,-1.5,0.6,-5.2,0.6c-2.7,0,-5.7,0.3,-7.1,0.6c-1.3,0.3,-2.9,0.6,-3.6,0.6c-1.3,0,-7.4,1.4,-10.3,2.2c-1,0.3,-2.3,0.6,-2.8,0.6c-0.5,0,-1.5,0.3,-2.1,0.6c-0.6,0.3,-1.4,0.6,-1.7,0.6c-0.3,0,-1.3,0.2,-2.3,0.6c-0.9,0.3,-3.1,1,-4.7,1.4c-1.6,0.5,-3.4,1.1,-4,1.4c-0.6,0.3,-1.6,0.6,-2.3,0.8c-0.7,0.2,-1.8,0.5,-2.4,0.8c-0.6,0.3,-1.3,0.6,-1.5,0.6c-0.3,0,-1,0.3,-1.6,0.6c-0.6,0.3,-1.9,0.9,-2.9,1.3c-1,0.4,-2.6,1,-3.5,1.4c-0.9,0.4,-1.9,0.7,-2.1,0.7c-0.3,0,-0.9,0.2,-1.5,0.5c-0.6,0.3,-1.7,0.8,-2.5,1.2c-0.8,0.3,-2.2,1,-3.2,1.4c-2.2,1,-5.2,2.4,-6,2.8c-0.8,0.4,-3.1,1.5,-4.4,2c-0.5,0.2,-1.5,0.8,-2.2,1.2c-0.7,0.4,-1.5,0.9,-1.8,1c-1.4,0.5,-2.3,1,-4.6,2.4c-1.3,0.8,-2.8,1.6,-3.2,1.8c-0.4,0.2,-1.3,0.8,-2,1.2c-0.7,0.4,-1.7,1.1,-2.4,1.4c-1.9,1,-4.8,3.1,-5.1,3.7c-0.2,0.3,-0.5,0.5,-0.8,0.5c-0.3,0,-0.7,0.4,-1,0.8c-0.7,1.2,-2.6,1,-4.2,-0.3c-1.5,-1.3,-1.5,-1.3,-4,-3.1c-1,-0.8,-2,-1.4,-2.1,-1.4c-0.1,0,-1,-0.5,-2,-1.2c-1,-0.7,-2.2,-1.4,-2.7,-1.6c-0.5,-0.2,-1.6,-0.8,-2.3,-1.3c-0.8,-0.5,-2.9,-1.7,-4.8,-2.7c-1.9,-1,-3.8,-2.1,-4.4,-2.3c-0.5,-0.3,-1.2,-0.5,-1.5,-0.5c-0.3,0,-0.5,-0.2,-0.5,-0.4c0,-0.2,-0.2,-0.4,-0.5,-0.4c-0.3,0,-1.8,-0.6,-3.5,-1.4c-3.8,-1.8,-5.8,-2.7,-7.6,-3.5c-3.5,-1.5,-4.3,-1.9,-6.4,-2.7c-1.2,-0.5,-2.8,-1.1,-3.5,-1.4c-0.7,-0.3,-1.5,-0.5,-1.8,-0.5c-0.3,0,-0.9,-0.3,-1.3,-0.6c-0.4,-0.3,-1,-0.6,-1.4,-0.6c-0.3,0,-1.1,-0.3,-1.6,-0.6c-0.6,-0.3,-1.6,-0.7,-2.2,-0.8c-0.6,-0.2,-1.7,-0.5,-2.4,-0.8c-1.9,-0.8,-12.2,-3.9,-17.2,-5.2c-5.7,-1.4,-8.1,-1.9,-10.2,-2.1c-1.2,-0.1,-3.2,-0.5,-4.4,-0.8c-1.2,-0.3,-4.2,-0.5,-6.6,-0.5c-6.5,0,-6.6,-0.2,-4.8,-14.2c1,-7.6,3,-16.5,4.9,-20.9c0.3,-0.7,0.5,-1.6,0.5,-1.9c0,-0.3,0.2,-1.1,0.6,-1.7c0.3,-0.6,0.8,-1.8,1.1,-2.5c1.4,-3.2,2.4,-5.5,3,-6.6c2.5,-4.8,3.7,-6.8,6.6,-11.2c3.3,-4.9,8.4,-10.7,12.7,-14.2c2.5,-2,7.7,-5.7,8.2,-5.7c0.1,0,1.1,-0.5,2.2,-1.2c1.1,-0.6,2.6,-1.3,3.3,-1.4c0.7,-0.2,1.6,-0.4,1.8,-0.6c0.7,-0.5,7,-1.8,9.4,-1.9c1.3,0,1.7,0.3,4.6,3.3" stroke="none" fill="#fbfbfb" fill-rule="evenodd"/><path id="path2" d="M58,6.6c0,0.5,-0.5,0.6,-2,0.6c-1.7,0,-2,0.1,-2,0.8c0,0.6,-0.3,0.8,-1.4,0.8c-1,0,-1.4,0.2,-1.4,0.6c0,0.4,-0.4,0.6,-1.4,0.6c-1,0,-1.4,0.2,-1.4,0.6c0,0.4,-0.4,0.6,-1.2,0.6c-0.9,0,-1.2,0.2,-1.2,0.8c0,0.5,-0.3,0.8,-0.8,0.8c-0.4,0,-0.8,0.3,-0.8,0.6c0,0.4,-0.4,0.6,-1.2,0.6c-0.8,0,-1.2,0.2,-1.2,0.6c0,0.3,-0.3,0.6,-0.6,0.6c-0.4,0,-0.7,0.4,-0.8,0.8c-0.1,0.4,-0.5,0.8,-0.8,0.8c-0.3,0,-0.6,0.3,-0.6,0.6c0,0.3,-0.3,0.6,-0.6,0.6c-0.3,0,-0.6,0.3,-0.6,0.6c0,0.3,-0.2,0.6,-0.6,0.6c-0.3,0,-0.6,0.4,-0.8,0.8c-0.1,0.4,-0.5,0.8,-0.8,0.8c-0.4,0,-0.6,0.4,-0.6,1.2c0,0.8,-0.2,1.2,-0.6,1.2c-0.3,0,-0.6,0.4,-0.6,0.8c0,0.4,-0.3,0.8,-0.6,0.8c-0.3,0,-0.7,0.5,-0.8,1.2c-0.1,0.6,-0.5,1.3,-0.8,1.4c-0.3,0.1,-0.6,0.7,-0.6,1.4c0,0.8,-0.2,1.2,-0.6,1.2c-0.5,0,-0.6,0.5,-0.6,2c0,1.6,-0.1,2,-0.8,2.2c-0.7,0.2,-0.8,0.5,-0.8,2.6c0,1.9,-0.1,2.4,-0.6,2.4c-0.9,0,-0.9,225.5,0,225.9c0.4,0.2,0.6,0.8,0.6,1.9c0,2.2,0.4,3.5,1,3.5c0.4,0,0.6,0.5,0.6,1.4c0,1,0.2,1.4,0.6,1.4c0.4,0,0.6,0.4,0.6,1.6c0,1.6,1.3,3.6,2.3,3.6c0.3,0,0.5,0.5,0.5,1.2c0,0.7,0.2,1.3,0.6,1.4c0.3,0.1,0.6,0.5,0.6,0.8c0,0.3,0.3,0.6,0.6,0.6c0.3,0,0.6,0.3,0.6,0.6c0,0.3,0.4,0.6,0.8,0.6c0.5,0,0.8,0.3,0.8,0.8c0,0.4,0.3,0.8,0.6,0.8c0.3,0,0.6,0.3,0.6,0.6c0,0.3,0.3,0.6,0.6,0.6c0.3,0,0.6,0.3,0.6,0.6c0,0.3,0.4,0.6,0.8,0.6c0.5,0,0.8,0.3,0.8,0.8c0,0.4,0.3,0.8,0.6,0.8c0.3,0,0.6,0.3,0.6,0.6c0,0.3,0.3,0.6,0.6,0.6c0.3,0,0.7,0.3,0.8,0.6c0.1,0.4,0.7,0.6,1.4,0.6c0.7,0,1.2,0.2,1.2,0.5c0,1,2,2.3,3.6,2.3c1.1,0,1.6,0.2,1.6,0.6c0,0.4,0.4,0.6,1.4,0.6c0.9,0,1.4,0.2,1.4,0.6c0,0.8,0.9,1,3.2,1c1.5,0,2,0.1,2,0.6c0,0.5,15.8,0.6,139.6,0.6c123.8,0,139.6,-0.1,139.6,-0.6c0,-0.5,0.5,-0.6,2.4,-0.6c2.1,0,2.5,-0.1,2.6,-0.8c0.2,-0.7,0.5,-0.8,2.2,-0.8c1.5,0,2,-0.1,2,-0.6c0,-0.4,0.4,-0.6,1.2,-0.6c0.7,0,1.3,-0.3,1.4,-0.6c0.1,-0.3,0.7,-0.7,1.4,-0.8c0.6,-0.1,1.2,-0.5,1.2,-0.8c0,-0.3,0.4,-0.6,0.8,-0.6c0.4,0,0.8,-0.3,0.8,-0.6c0,-0.3,0.3,-0.6,0.6,-0.6c0.3,0,0.6,-0.3,0.6,-0.6c0,-0.3,0.4,-0.6,0.8,-0.6c0.4,0,1.2,-0.4,1.6,-0.8c0.4,-0.4,1,-0.8,1.2,-0.8c0.2,0,0.4,-0.3,0.4,-0.6c0,-0.3,0.3,-0.6,0.6,-0.6c0.3,0,0.6,-0.2,0.6,-0.5c0,-0.6,1.7,-2.3,2.3,-2.3c0.2,0,0.4,-0.5,0.4,-1.2c0,-0.8,0.2,-1.2,0.6,-1.2c0.3,0,0.6,-0.4,0.6,-0.8c0,-0.4,0.3,-0.8,0.6,-0.8c0.3,0,0.7,-0.5,0.8,-1.2c0.1,-0.6,0.5,-1.3,0.8,-1.4c0.3,-0.1,0.6,-0.7,0.6,-1.4c0,-0.8,0.2,-1.2,0.6,-1.2c0.4,0,0.6,-0.4,0.6,-1.4c0,-0.9,0.2,-1.4,0.6,-1.4c0.7,0,1,-1.2,1,-3.5c0,-1.2,0.2,-1.7,0.6,-1.7c0.5,0,0.6,-13,0.6,-114.8c0,-101.8,-0.1,-114.8,-0.6,-114.8c-0.4,0,-0.6,-0.5,-0.6,-1.8c0,-1.4,-0.2,-1.9,-0.8,-2.3c-0.5,-0.3,-0.8,-0.9,-0.8,-1.6c0,-0.7,-0.2,-1.1,-0.6,-1.1c-0.4,0,-0.6,-0.4,-0.6,-1.4c0,-1,-0.2,-1.4,-0.6,-1.4c-0.4,0,-0.6,-0.4,-0.6,-1.2c0,-0.8,-0.2,-1.2,-0.8,-1.4c-0.6,-0.2,-0.8,-0.5,-0.8,-1.4c0,-0.8,-0.2,-1.2,-0.6,-1.2c-0.3,0,-0.6,-0.3,-0.6,-0.6c0,-0.3,-0.2,-0.6,-0.6,-0.6c-0.3,0,-0.6,-0.4,-0.8,-0.8c-0.1,-0.4,-0.5,-0.8,-0.8,-0.8c-0.4,0,-0.6,-0.3,-0.6,-0.6c0,-0.3,-0.3,-0.6,-0.6,-0.6c-0.3,0,-0.6,-0.3,-0.6,-0.6c0,-0.3,-0.2,-0.6,-0.6,-0.6c-0.3,0,-0.6,-0.4,-0.8,-0.8c-0.1,-0.4,-0.5,-0.8,-0.8,-0.8c-0.4,0,-0.6,-0.3,-0.6,-0.6c0,-0.3,-0.3,-0.6,-0.6,-0.6c-0.3,0,-0.6,-0.3,-0.6,-0.6c0,-0.4,-0.4,-0.6,-1.4,-0.6c-1.1,0,-1.4,-0.2,-1.4,-0.8c0,-0.6,-0.3,-0.8,-1.2,-0.8c-0.8,0,-1.2,-0.2,-1.2,-0.6c0,-0.3,-0.4,-0.6,-0.8,-0.6c-0.4,0,-0.8,-0.3,-0.8,-0.6c0,-0.5,-0.5,-0.6,-2,-0.6c-1.7,0,-2,-0.1,-2,-0.8c0,-0.7,-0.3,-0.8,-2,-0.8c-1.5,0,-2,-0.1,-2,-0.6c0,-0.5,-16,-0.6,-142,-0.6c-126,0,-142,0.1,-142,0.6M339.2,19.1c9,3.1,15.8,9.2,19.1,17.1c2.6,6.2,2.3,-1.7,2.4,78.6c0.1,99.7,-0.3,146.1,-1.5,149.4c-3.9,11.1,-11.3,18,-22.1,20.6c-4.9,1.2,-268.8,1.2,-273.8,0c-6.2,-1.5,-10,-3.6,-14.1,-7.7c-2.9,-2.9,-5.3,-6.2,-6.2,-8.3c-0.1,-0.3,-0.5,-1.2,-0.8,-1.9c-1.8,-4.2,-1.8,-4.8,-2.2,-42.9c-0.5,-52.2,-0.3,-181.7,0.3,-182.4c0.2,-0.3,0.6,-1.2,0.7,-2c0.4,-2,2.7,-7,3.4,-7.6c0.1,-0.1,0.5,-0.6,0.7,-1c1,-1.9,3.5,-4.5,7.5,-7.8c1.1,-0.9,6.8,-3.6,7.6,-3.6c0.5,0,1,-0.2,1.3,-0.5c1,-1,9.4,-1,140.3,-1h134.8l2.6,0.9M191.4,30c-0.7,0.2,-2.1,0.5,-3.2,0.7c-2.4,0.4,-5.6,1.5,-7.1,2.3c-0.6,0.3,-1.3,0.6,-1.7,0.6c-0.3,0,-0.8,0.3,-1.1,0.6c-0.3,0.3,-0.8,0.6,-1.1,0.6c-0.3,0,-1.1,0.3,-1.7,0.7c-0.6,0.4,-2.5,1.7,-4.2,2.8c-7.9,5.3,-16.6,16.6,-18.5,24.2c-0.2,0.6,-0.5,1.6,-0.8,2.2c-0.3,0.6,-0.5,1.5,-0.5,2.1c0,0.6,-0.3,1.7,-0.6,2.6c-1.7,4,-0.6,20.8,1.7,26c0.3,0.7,0.6,1.5,0.6,1.7c0,0.2,0.2,0.8,0.4,1.1c0.2,0.4,0.9,1.8,1.5,3.1c0.6,1.3,1.6,3.2,2.2,4.1c0.6,0.9,1.2,1.8,1.2,1.9c0,0.2,2.6,3.5,3.2,4.1c0.1,0.1,0.8,0.9,1.5,1.7c2.2,2.5,6.6,6.3,10,8.5c3.8,2.4,11.4,5.8,13,5.8c0.5,0,1.1,0.2,1.4,0.4c1.1,1.1,14.5,1.8,20.6,1c11.8,-1.5,24.5,-9,32,-19.1c1.1,-1.4,2.2,-3,2.6,-3.4c0.3,-0.4,0.6,-0.9,0.6,-1.1c0,-0.2,0.5,-1.2,1.2,-2.1c0.7,-1,1.2,-1.9,1.2,-2.2c0,-0.2,0.4,-1.1,0.8,-1.9c0.4,-0.8,0.8,-1.7,0.8,-2c0,-0.3,0.3,-1,0.6,-1.6c0.3,-0.6,0.6,-1.6,0.6,-2.1c0,-0.5,0.2,-1.3,0.5,-1.8c2,-3.6,1.8,-18.5,-0.2,-25.7c-0.8,-2.9,-1.8,-5.7,-2.2,-6.5c-0.2,-0.4,-0.7,-1.3,-1,-2.1c-2.8,-6.7,-10.2,-15.2,-16.6,-19.4c-1,-0.6,-1.9,-1.3,-2,-1.4c-0.1,-0.1,-0.7,-0.4,-1.2,-0.7c-0.5,-0.3,-1.4,-0.7,-1.8,-1c-1.6,-0.9,-2,-1.1,-3,-1.5c-0.6,-0.2,-1.4,-0.6,-1.8,-0.8c-1.5,-0.7,-4.8,-1.7,-6.6,-2c-1,-0.2,-2.4,-0.5,-3.2,-0.8c-1.7,-0.5,-16.1,-0.5,-17.8,0M151,117.6c-3.6,0.5,-7.2,1.3,-7.6,1.6c-0.2,0.2,-1.1,0.4,-1.9,0.6c-0.8,0.2,-1.7,0.5,-1.9,0.8c-0.3,0.3,-0.8,0.6,-1.2,0.6c-0.4,0,-0.9,0.3,-1.2,0.6c-0.3,0.3,-0.7,0.6,-0.9,0.6c-1.1,0,-8.1,5.2,-11.9,8.9c-7,6.8,-14.1,17.6,-18.6,28.5c-0.3,0.7,-0.8,1.9,-1.1,2.7c-0.4,0.8,-0.6,1.8,-0.6,2.1c0,0.3,-0.3,1.2,-0.6,1.9c-2.2,4.9,-4.5,16.2,-5.1,24.3c-0.2,3,-0.5,6,-0.6,6.8c-0.3,2.1,0.1,2.2,7.2,2.7c3.5,0.2,6.9,0.6,7.6,0.9c0.7,0.2,2.4,0.6,3.8,0.8c2.4,0.3,3.8,0.7,9.4,2c1.1,0.3,3,0.8,4.1,1.2c1.2,0.4,2.5,0.8,2.9,0.8c0.4,0,1.2,0.3,1.9,0.6c0.6,0.3,1.6,0.6,2.2,0.6c0.6,0,1.4,0.2,1.8,0.5c0.4,0.3,1.2,0.6,1.8,0.8c0.5,0.1,2.3,0.7,3.8,1.3c1.5,0.6,3.2,1.2,3.6,1.3c0.4,0.1,1.3,0.4,2,0.7c0.7,0.3,2.3,0.9,3.6,1.4c1.3,0.5,2.8,1.1,3.2,1.4c0.4,0.3,1.2,0.5,1.7,0.5c0.5,0,1.1,0.3,1.4,0.6c0.3,0.3,0.8,0.6,1.1,0.6c0.3,0,2,0.6,3.7,1.4c1.7,0.8,4.4,2.1,6.1,2.8c4.7,2.2,13,6.5,15,7.8c0.7,0.4,1.6,1,2.2,1.2c0.5,0.2,1.8,1,2.7,1.6c1,0.7,1.9,1.2,2,1.2c0.1,0,0.6,0.3,1.1,0.7c0.5,0.4,1.3,1,1.8,1.3c0.5,0.3,1.6,1.2,2.3,1.9c1.7,1.6,3.5,1.7,4.7,0.5c0.4,-0.5,2.1,-1.7,3.8,-2.8c1.7,-1.1,3.4,-2.2,3.8,-2.6c0.4,-0.3,0.9,-0.6,1.1,-0.6c0.2,0,1.1,-0.5,2,-1.1c1.8,-1.2,3.8,-2.3,7.9,-4.4c2.6,-1.4,3.7,-2,4.8,-2.6c0.3,-0.2,0.9,-0.4,1.2,-0.6c0.6,-0.3,5.4,-2.4,8.2,-3.8c4,-1.9,7,-3.2,7.4,-3.2c0.2,0,1.1,-0.4,1.9,-0.8c0.8,-0.4,1.8,-0.8,2.2,-0.8c0.4,0,0.8,-0.2,0.9,-0.4c0.1,-0.2,0.8,-0.6,1.5,-0.8c0.7,-0.2,2.3,-0.8,3.5,-1.2c1.2,-0.5,2.8,-1,3.6,-1.3c0.8,-0.2,1.9,-0.6,2.6,-0.9c1.4,-0.6,3.3,-1.3,5.8,-2c1,-0.3,2.8,-0.8,4,-1.2c2,-0.6,3.4,-1,8.4,-2.2c1,-0.2,2.7,-0.7,3.8,-1c1.1,-0.3,3,-0.6,4.2,-0.8c1.2,-0.1,2.7,-0.4,3.2,-0.7c0.6,-0.2,4.1,-0.6,7.8,-0.9l6.8,-0.5l-0.1,-3.2c-0.1,-3.8,-0.8,-11.7,-1.4,-14.2c-0.2,-1,-0.6,-3,-0.9,-4.4c-0.8,-3.9,-1.5,-6.4,-2.1,-7.9c-0.3,-0.7,-0.6,-1.7,-0.6,-2.2c0,-0.5,-0.3,-1.4,-0.6,-2c-0.3,-0.6,-0.8,-1.7,-1,-2.4c-0.8,-2.5,-1.5,-4.3,-2,-4.8c-0.3,-0.3,-0.5,-0.7,-0.5,-1c0,-1,-5.1,-10.9,-6.2,-12.2c-0.3,-0.3,-0.6,-0.8,-0.6,-1.1c0,-0.3,-0.2,-0.5,-0.4,-0.5c-0.2,0,-0.9,-0.9,-1.6,-2.1c-0.7,-1.2,-1.5,-2.5,-1.9,-2.9c-0.4,-0.4,-1.6,-1.9,-2.7,-3.2c-4.2,-5.1,-11.3,-11.1,-15.2,-13c-1,-0.5,-1.9,-1,-2,-1.2c-0.1,-0.2,-0.6,-0.4,-1,-0.4c-0.4,0,-1,-0.3,-1.2,-0.6c-0.3,-0.3,-0.9,-0.6,-1.3,-0.6c-0.5,0,-1.4,-0.3,-2,-0.6c-3.2,-1.7,-10.9,-2.3,-11.7,-1c-0.8,1.3,-4.9,5.6,-5.3,5.6c-0.2,0,-1,0.7,-1.9,1.5c-1.7,1.7,-7.3,5.4,-10.1,6.9c-1,0.5,-2.1,1.1,-2.4,1.3c-0.7,0.4,-1.1,0.6,-4,1.6c-1.2,0.5,-2.8,1.1,-3.5,1.4c-0.7,0.3,-1.7,0.5,-2.1,0.5c-0.5,0,-1.2,0.2,-1.7,0.4c-4.1,2.2,-19.6,2.4,-27.7,0.3c-0.9,-0.2,-2.3,-0.6,-3.2,-0.8c-1.6,-0.4,-7.5,-2.6,-8.6,-3.2c-0.3,-0.2,-1.6,-0.8,-2.8,-1.4c-1.2,-0.6,-2.3,-1.2,-2.4,-1.4c-0.1,-0.2,-0.7,-0.6,-1.3,-0.9c-2.9,-1.5,-7.2,-4.9,-11,-8.8c-2.4,-2.4,-4.4,-4.3,-4.5,-4.3c-0.1,0,-1.1,0.2,-2.2,0.3M38,304.2c0,0.4,-0.5,0.6,-1.8,0.6c-1.5,0,-1.9,0.1,-2,0.8c-0.2,0.6,-0.5,0.8,-1.6,0.8c-0.9,0,-1.4,0.2,-1.4,0.6c0,0.4,-0.4,0.6,-1.2,0.6c-0.8,0,-1.2,0.2,-1.4,0.8c-0.1,0.4,-0.5,0.8,-0.8,0.8c-0.4,0,-0.6,0.4,-0.6,1.2c0,0.8,-0.2,1.2,-0.6,1.2c-0.3,0,-0.6,0.3,-0.6,0.6c0,0.3,-0.3,0.7,-0.6,0.8c-0.3,0.1,-0.7,0.8,-0.8,1.4c-0.1,0.7,-0.5,1.3,-0.8,1.4c-0.4,0.1,-0.6,0.8,-0.6,2c0,1.3,-0.2,1.8,-0.6,1.8c-0.5,0,-0.6,0.5,-0.6,2c0,1.5,-0.1,2,-0.6,2c-0.4,0,-0.6,0.4,-0.6,1.4c0,1,-0.2,1.4,-0.8,1.6c-0.7,0.2,-0.8,0.5,-0.8,2c0,1.4,-0.2,1.8,-0.6,1.8c-0.5,0,-0.6,0.5,-0.6,2c0,1.5,-0.1,2,-0.6,2c-0.4,0,-0.6,0.4,-0.6,1.2c0,0.8,-0.2,1.2,-0.8,1.4c-0.7,0.2,-0.8,0.5,-0.8,2c0,1.4,-0.2,1.8,-0.6,1.8c-0.5,0,-0.6,0.5,-0.6,2c0,1.5,-0.1,2,-0.6,2c-0.4,0,-0.6,0.4,-0.6,1.4c0,1,-0.2,1.4,-0.8,1.6c-0.7,0.2,-0.8,0.5,-0.8,2c0,1.4,-0.2,1.8,-0.6,1.8c-0.5,0,-0.6,0.5,-0.6,2c0,1.5,-0.1,2,-0.6,2c-0.4,0,-0.6,0.4,-0.6,1.1c0,0.7,-0.3,1.3,-0.8,1.6c-0.6,0.4,-0.8,0.9,-0.8,2.1c0,1,-0.2,1.6,-0.6,1.8c-0.4,0.2,-0.6,0.8,-0.6,2c0,1.3,-0.2,1.8,-0.6,1.8c-0.4,0,-0.6,0.4,-0.6,1.4c0,0.9,-0.2,1.4,-0.6,1.4c-0.9,0,-1,1,-1,8c0,7,0.1,8,1,8c0.4,0,0.6,0.4,0.6,1.2c0,0.8,0.2,1.2,0.6,1.2c0.3,0,0.6,0.4,0.6,0.8c0,0.4,0.3,0.8,0.6,0.8c0.3,0,0.6,0.3,0.6,0.6c0,0.3,0.4,0.6,0.8,0.6c0.4,0,0.8,0.3,0.8,0.6c0,0.3,0.3,0.6,0.6,0.6c0.3,0,0.6,0.4,0.6,0.8c0,0.4,0.3,0.8,0.6,0.8c0.3,0,0.7,0.3,0.8,0.6c0.1,0.4,0.7,0.6,1.4,0.6c0.8,0,1.2,0.2,1.2,0.6c0,0.5,20.9,0.6,185.4,0.6c164.5,0,185.4,-0.1,185.4,-0.6c0,-0.4,0.4,-0.6,1.2,-0.6c0.8,0,1.2,-0.2,1.2,-0.6c0,-0.4,0.4,-0.6,1.2,-0.6c0.9,0,1.3,-0.2,1.4,-0.8c0.1,-0.4,0.5,-0.8,0.8,-0.8c0.3,0,0.6,-0.2,0.6,-0.6c0,-0.3,0.4,-0.6,0.8,-0.8c0.6,-0.2,0.8,-0.5,0.8,-1.4c0,-0.8,0.2,-1.2,0.6,-1.2c0.3,0,0.6,-0.3,0.6,-0.6c0,-0.3,0.3,-0.6,0.6,-0.6c0.5,0,0.6,-0.5,0.6,-2c0,-1.4,0.2,-2,0.6,-2c0.9,0,1,-0.9,1,-5.8c0,-4.3,0,-4.6,-0.8,-4.6c-0.7,0,-0.8,-0.3,-0.8,-2c0,-1.5,-0.1,-2,-0.6,-2c-0.5,0,-0.6,-0.5,-0.6,-2c0,-1.5,-0.1,-2,-0.6,-2c-0.4,0,-0.6,-0.4,-0.6,-1.4c0,-1.1,-0.2,-1.4,-0.8,-1.4c-0.7,0,-0.8,-0.3,-0.8,-2c0,-1.5,-0.1,-2,-0.6,-2c-0.4,0,-0.6,-0.5,-0.6,-1.8c0,-1.2,-0.2,-1.9,-0.6,-2c-0.3,-0.1,-0.6,-0.7,-0.6,-1.4c0,-0.9,-0.2,-1.3,-0.8,-1.4c-0.6,-0.2,-0.8,-0.5,-0.8,-2c0,-1.3,-0.2,-1.8,-0.6,-1.8c-0.5,0,-0.6,-0.5,-0.6,-2c0,-1.5,-0.1,-2,-0.6,-2c-0.4,0,-0.6,-0.4,-0.6,-1.4c0,-1.1,-0.2,-1.4,-0.8,-1.4c-0.7,0,-0.8,-0.3,-0.8,-2c0,-1.5,-0.1,-2,-0.6,-2c-0.5,0,-0.6,-0.5,-0.6,-2c0,-1.5,-0.1,-2,-0.6,-2c-0.4,0,-0.6,-0.4,-0.6,-1.4c0,-1,-0.2,-1.4,-0.6,-1.4c-0.4,0,-0.6,-0.4,-0.6,-1.4c0,-1.8,-0.3,-2.6,-1,-2.6c-0.4,0,-0.6,-0.5,-0.6,-1.8c0,-1.2,-0.2,-1.8,-0.6,-2c-0.4,-0.1,-0.6,-0.7,-0.6,-1.4c0,-0.8,-0.2,-1.2,-0.6,-1.2c-0.4,0,-0.6,-0.5,-0.6,-1.8c0,-1.5,-0.1,-1.9,-0.8,-2c-0.6,-0.1,-0.8,-0.5,-0.8,-1.4c0,-0.7,-0.3,-1.3,-0.6,-1.4c-0.3,-0.1,-0.6,-0.5,-0.6,-0.8c0,-0.3,-0.2,-0.6,-0.6,-0.6c-0.3,0,-0.6,-0.4,-0.8,-0.8c-0.1,-0.4,-0.5,-0.8,-0.8,-0.8c-0.4,0,-0.6,-0.3,-0.6,-0.6c0,-0.3,-0.3,-0.6,-0.6,-0.6c-0.3,0,-0.7,-0.3,-0.8,-0.6c-0.1,-0.4,-0.7,-0.6,-1.4,-0.6c-0.8,0,-1.2,-0.2,-1.2,-0.6c0,-0.6,-1.2,-1,-2.9,-1c-0.6,0,-1.2,-0.3,-1.3,-0.6c-0.2,-0.5,-18.6,-0.6,-162,-0.6c-143.6,0,-161.8,0.1,-161.8,0.6M361.4,318.8c1.2,1.3,4.2,7.8,4.3,9.3c0,0.3,0.3,0.9,0.6,1.3c0.3,0.4,0.6,1.1,0.6,1.5c0,0.4,0.3,1.2,0.6,1.8c0.5,1,1,2.2,2.8,7.3c0.3,0.8,0.8,2.1,1.1,3c0.3,0.9,1,2.7,1.5,4c0.5,1.3,1.1,3,1.4,3.7c0.3,0.7,0.5,1.5,0.5,1.8c0,0.3,0.3,0.9,0.6,1.3c0.3,0.4,0.6,1.1,0.6,1.4c0,0.3,0.6,2.1,1.4,4c0.8,1.9,1.4,3.6,1.4,4c0,0.3,0.3,1,0.6,1.4c0.3,0.4,0.6,1,0.6,1.3c0,0.3,0.6,2.1,1.3,4c2.8,7.4,2.8,8.8,-0.2,11.5l-1.5,1.4h-179.9c-179.8,0,-179.9,0,-181,-0.8c-3.3,-2.6,-3.4,-6.2,-0.5,-12.7c0.3,-0.7,0.6,-1.5,0.6,-1.7c0,-0.2,0.3,-1.1,0.6,-1.9c0.4,-0.8,0.9,-2.1,1.2,-2.7c1,-2.4,3.1,-8,3.4,-9.3c0.2,-0.7,0.5,-1.5,0.8,-1.8c0.2,-0.2,0.4,-0.7,0.4,-1c0,-0.4,0.8,-2.5,3.4,-9.3c0.5,-1.3,1.3,-3.5,2.9,-7.7c0.3,-0.8,0.8,-2.2,1.1,-3c0.3,-0.8,1,-2.6,1.5,-3.9c0.5,-1.3,1,-2.8,1.2,-3.2c0.2,-0.4,0.6,-1.4,0.9,-2.2c0.8,-1.9,2.5,-3.9,3.6,-4.1c0.5,-0.1,72.7,-0.2,160.6,-0.1h159.7l1.4,1.4" stroke="none" fill="#2c34a4" fill-rule="evenodd"/><path id="path3" d="M65.5,19.8c-0.2,0.4,-0.9,0.6,-2.6,0.6c-2,0,-2.4,0.1,-2.6,0.8c-0.1,0.6,-0.5,0.8,-1.4,0.8c-0.7,0,-1.3,0.3,-1.4,0.6c-0.1,0.3,-0.7,0.6,-1.2,0.6c-0.5,0,-1.1,0.3,-1.2,0.6c-0.1,0.3,-0.5,0.6,-0.8,0.6c-0.3,0,-0.6,0.2,-0.6,0.4c0,0.2,-0.5,0.6,-1.1,0.9c-0.6,0.3,-1.5,1,-2.1,1.6c-0.5,0.6,-1.2,1.1,-1.5,1.1c-0.3,0,-0.5,0.4,-0.5,0.8c0,0.4,-0.2,0.8,-0.5,0.8c-0.3,0,-0.9,0.9,-1.5,2c-0.5,1.1,-1.2,2,-1.5,2c-0.3,0,-0.5,0.5,-0.5,1.2c0,0.8,-0.2,1.2,-0.6,1.2c-0.4,0,-0.6,0.5,-0.6,1.8c0,1.2,-0.2,1.9,-0.6,2c-0.5,0.2,-0.6,0.9,-0.6,3c0,3.1,-0.2,4,-1,4c-0.5,0,-0.6,11.9,-0.6,80.4v80.4l23.1,0.1c18,0.1,23.1,0.2,23.2,0.6c0.1,0.3,1.2,0.5,3.7,0.5c5.2,0,8.4,0.4,8.4,1.1c0,0.4,1,0.5,4.4,0.5c3.6,0,4.5,0.1,4.6,0.6c0.2,0.5,0.9,0.6,3.2,0.6c1.9,0,3.1,0.2,3.5,0.5c0.3,0.3,1.9,0.7,3.5,0.8c2,0.2,3.1,0.5,3.3,0.9c0.2,0.4,1,0.6,2.7,0.6c1.8,0,2.5,0.2,2.6,0.6c0.2,0.4,0.8,0.6,2.1,0.6c1,0,2.2,0.2,2.7,0.5c0.4,0.3,1.6,0.7,2.7,0.8c1.3,0.2,1.9,0.5,1.9,0.9c0,0.4,0.5,0.6,2,0.6c1.2,0,2.2,0.2,2.6,0.6c0.3,0.3,1.2,0.6,1.8,0.6c0.7,0,1.3,0.2,1.5,0.6c0.1,0.3,1.1,0.7,2.2,0.8c1.3,0.2,2,0.4,2,0.8c0,0.4,0.5,0.6,1.6,0.6c0.9,0,1.8,0.3,2,0.6c0.3,0.3,1,0.6,1.7,0.6c0.6,0,1.3,0.3,1.4,0.6c0.1,0.3,1,0.7,2,0.8c1,0.1,1.8,0.5,2,0.8c0.1,0.3,0.7,0.6,1.2,0.6c0.6,0,1.1,0.3,1.3,0.6c0.1,0.3,0.7,0.6,1.4,0.6c0.6,0,1.3,0.3,1.4,0.6c0.1,0.3,0.8,0.7,1.6,0.8c0.8,0.2,1.4,0.5,1.4,0.8c0,0.4,0.4,0.6,1.2,0.6c0.8,0,1.2,0.2,1.2,0.6c0,0.4,0.4,0.6,1.2,0.6c0.7,0,1.3,0.2,1.4,0.6c0.1,0.3,0.6,0.6,1,0.6c0.4,0,1.1,0.4,1.4,0.8c0.4,0.4,1.1,0.8,1.6,0.8c0.5,0,1,0.2,1.2,0.5c0.2,0.3,1.2,0.9,2.2,1.4c1,0.5,1.9,1.2,1.9,1.5c0,0.3,0.4,0.6,1,0.6c0.5,0,1.2,0.3,1.4,0.6c0.3,0.3,0.7,0.6,1,0.6c0.3,0,0.6,0.3,0.6,0.6c0,0.3,0.4,0.6,0.8,0.6c0.4,0,1.2,0.4,1.6,0.8c0.4,0.4,1,0.8,1.2,0.8c0.2,0,0.4,0.3,0.4,0.6c0,0.4,0.4,0.6,1,0.6c0.6,0,1.1,0.3,1.2,0.6c0.1,0.3,0.4,0.6,0.7,0.6c0.3,0,1,0.6,1.7,1.4c0.7,0.8,1.4,1.4,1.6,1.4c0.2,0,0.7,0.4,1.1,0.8c0.4,0.4,0.9,0.8,1.1,0.8c0.2,0,0.9,0.5,1.5,1.2c0.8,0.8,1.2,1,1.2,0.6c0,-0.3,0.2,-0.6,0.5,-0.6c0.3,0,0.9,-0.4,1.3,-0.8c0.4,-0.4,0.9,-0.8,1.2,-0.8c0.3,0,0.6,-0.3,0.7,-0.6c0.1,-0.3,0.5,-0.6,0.8,-0.6c0.3,0,0.6,-0.3,0.6,-0.6c0,-0.3,0.3,-0.6,0.6,-0.6c0.3,0,0.6,-0.1,0.6,-0.3c0,-0.4,3.1,-2.5,3.6,-2.5c0.2,0,0.4,-0.3,0.6,-0.6c0.1,-0.3,0.5,-0.6,0.8,-0.6c0.3,0,0.9,-0.4,1.3,-0.8c0.4,-0.4,0.9,-0.8,1.2,-0.8c0.3,0,0.6,-0.3,0.7,-0.6c0.1,-0.3,0.5,-0.6,0.8,-0.6c0.3,0,0.8,-0.3,1.1,-0.6c0.3,-0.3,0.7,-0.6,1,-0.6c0.3,0,0.9,-0.4,1.4,-0.8c0.4,-0.4,1.2,-0.8,1.6,-0.8c0.4,0,0.8,-0.3,0.8,-0.6c0,-0.3,0.3,-0.6,0.8,-0.6c0.4,0,1,-0.3,1.2,-0.6c0.3,-0.3,0.7,-0.6,1,-0.6c0.3,0,0.9,-0.4,1.4,-0.8c0.4,-0.4,1.1,-0.8,1.4,-0.8c0.3,0,0.9,-0.3,1.2,-0.6c0.3,-0.3,0.9,-0.6,1.4,-0.6c0.4,0,0.8,-0.3,0.8,-0.6c0,-0.4,0.4,-0.6,1.2,-0.6c0.7,0,1.3,-0.3,1.4,-0.6c0.1,-0.3,0.8,-0.7,1.5,-0.8c0.7,-0.2,1.5,-0.5,1.8,-0.8c0.3,-0.3,0.9,-0.6,1.3,-0.6c0.4,0,0.9,-0.3,1,-0.6c0.1,-0.3,0.6,-0.6,1.1,-0.6c0.5,0,1.6,-0.4,2.4,-0.8c0.9,-0.4,1.8,-0.8,2,-0.8c0.3,0,0.7,-0.3,1,-0.6c0.3,-0.3,1,-0.6,1.6,-0.6c0.6,0,1.3,-0.3,1.6,-0.6c0.3,-0.3,1.1,-0.6,1.9,-0.6c0.8,0,1.5,-0.2,1.6,-0.6c0.1,-0.3,1,-0.7,2,-0.8c1,-0.1,2,-0.5,2.2,-0.8c0.3,-0.3,1.1,-0.6,2,-0.6c1,0,1.6,-0.2,1.7,-0.6c0.2,-0.4,0.8,-0.6,2,-0.6c1.2,0,1.8,-0.2,2,-0.6c0.1,-0.3,1.1,-0.7,2.1,-0.8c1.1,-0.1,2.3,-0.5,2.8,-0.8c0.5,-0.3,1.7,-0.6,2.7,-0.6c1.2,0,1.8,-0.2,2,-0.6c0.2,-0.4,0.9,-0.6,2.5,-0.6c1.6,0,2.4,-0.2,2.7,-0.6c0.3,-0.4,1.4,-0.7,3.2,-0.9c1.5,-0.1,3.2,-0.5,3.6,-0.8c0.5,-0.3,1.9,-0.5,3.7,-0.5c2.1,0,3,-0.2,3.4,-0.6c0.4,-0.5,1.4,-0.6,4.3,-0.6c3,0,3.9,-0.1,4.3,-0.6c0.4,-0.5,1.6,-0.7,6,-0.9c3.2,-0.1,5.8,-0.4,6.1,-0.7c0.4,-0.3,7.3,-0.5,23.3,-0.6l22.7,-0.1v-81.7c0,-72.3,-0.1,-81.8,-0.6,-82c-0.4,-0.2,-0.6,-0.9,-0.6,-2.5c0,-1.9,-0.1,-2.4,-0.8,-2.8c-0.4,-0.3,-0.8,-0.8,-0.8,-1.2c0,-0.9,-1.6,-4.1,-2,-4.1c-0.2,0,-0.4,-0.5,-0.4,-1.2c0,-0.7,-0.2,-1.2,-0.5,-1.2c-0.6,0,-2.3,-1.7,-2.3,-2.3c0,-0.2,-0.3,-0.4,-0.6,-0.4c-0.3,0,-0.6,-0.3,-0.6,-0.6c0,-0.3,-0.2,-0.6,-0.4,-0.6c-0.6,0,-2.4,-1.8,-2.4,-2.3c0,-0.3,-0.5,-0.5,-1,-0.5c-0.6,0,-1.1,-0.3,-1.2,-0.6c-0.1,-0.3,-0.6,-0.6,-1,-0.6c-0.4,0,-0.8,-0.3,-0.8,-0.6c0,-0.4,-0.4,-0.6,-1.6,-0.6c-1.2,0,-1.7,-0.2,-2.1,-0.8c-0.4,-0.6,-0.9,-0.8,-2.4,-0.8c-1.4,0,-1.9,-0.2,-1.9,-0.6c0,-0.9,-269.8,-0.9,-270.1,0M204.6,27.4c0.3,0.1,0.6,0.5,0.6,0.8c0,0.4,0.8,0.6,4,0.6c3.3,0,4,0.1,4,0.6c0,0.5,0.5,0.6,2.2,0.6c1.4,0,2.3,0.2,2.6,0.6c0.3,0.3,1,0.6,1.7,0.6c0.9,0,1.2,0.2,1.4,0.8c0.2,0.6,0.5,0.8,1.6,0.8c0.9,0,1.4,0.2,1.4,0.6c0,0.4,0.4,0.6,1.2,0.6c0.8,0,1.2,0.2,1.2,0.6c0,0.4,0.4,0.6,1,0.6c0.6,0,1.2,0.3,1.5,0.8c0.3,0.4,0.7,0.8,1,0.8c0.3,0,0.5,0.3,0.5,0.6c0,0.3,0.3,0.6,0.8,0.6c0.4,0,1,0.2,1.3,0.5c0.3,0.3,0.8,0.6,1.2,0.8c0.4,0.1,0.7,0.5,0.7,0.9c0,0.3,0.2,0.6,0.4,0.6c0.6,0,3.6,3,3.6,3.5c0,0.3,0.2,0.5,0.5,0.5c0.5,0,2.3,2.4,2.3,3.1c0,0.2,0.3,0.5,0.6,0.7c0.3,0.1,0.6,0.5,0.6,0.8c0,0.3,0.3,0.6,0.6,0.6c0.4,0,0.7,0.5,0.8,1.2c0.1,0.6,0.5,1.3,0.8,1.4c0.3,0.1,0.6,0.5,0.6,0.8c0,0.3,0.3,0.8,0.6,1.1c0.3,0.3,0.6,0.9,0.6,1.4c0,0.5,0.2,1,0.6,1c0.6,0,1,1.2,1,2.7c0,0.5,0.3,1,0.6,1.1c0.4,0.2,0.6,0.8,0.6,1.9c0,1.2,0.2,1.8,0.6,1.9c0.4,0.2,0.6,0.9,0.6,2.8c0,2,0.1,2.6,0.6,2.6c1.4,0,1.5,18.5,0.1,19.2c-0.6,0.3,-0.7,0.9,-0.7,3c0,2,-0.1,2.6,-0.6,2.6c-0.4,0,-0.6,0.5,-0.6,1.8c0,1.2,-0.2,1.9,-0.6,2c-0.3,0.1,-0.6,0.7,-0.6,1.4c0,0.9,-0.2,1.3,-0.8,1.4c-0.6,0.2,-0.8,0.5,-0.8,1.6c0,0.9,-0.2,1.4,-0.6,1.4c-0.4,0,-0.6,0.4,-0.6,1.2c0,0.8,-0.2,1.2,-0.6,1.2c-0.3,0,-0.7,0.5,-0.8,1.2c-0.1,0.6,-0.5,1.3,-0.8,1.4c-0.3,0.1,-0.6,0.5,-0.6,0.8c0,0.3,-0.3,0.6,-0.6,0.6c-0.3,0,-0.6,0.2,-0.6,0.5c0,0.6,-1.7,2.3,-2.3,2.3c-0.2,0,-0.4,0.4,-0.4,0.9c0,1,-2.2,3.1,-3.3,3.1c-0.4,0,-0.7,0.3,-0.7,0.6c0,0.3,-0.3,0.6,-0.6,0.6c-0.3,0,-0.6,0.2,-0.6,0.5c0,0.5,-1.7,2.3,-2.2,2.3c-0.1,0,-0.5,0.3,-0.9,0.6c-0.3,0.3,-0.9,0.6,-1.4,0.6c-0.4,0,-0.8,0.3,-0.8,0.6c0,0.6,-0.8,1,-2,1c-0.4,0,-0.8,0.3,-0.8,0.6c0,0.4,-0.4,0.6,-1.4,0.6c-1,0,-1.4,0.2,-1.4,0.6c0,0.4,-0.4,0.6,-1.2,0.6c-0.8,0,-1.2,0.2,-1.2,0.6c0,0.7,-0.9,1,-2.6,1c-0.8,0,-1.4,0.2,-1.6,0.6c-0.2,0.4,-0.9,0.6,-2.7,0.6c-1.8,0,-2.5,0.2,-2.7,0.6c-0.2,0.5,-1.8,0.6,-10.6,0.6c-8.9,0,-10.4,-0.1,-10.4,-0.6c0,-0.5,-0.6,-0.6,-2.6,-0.6c-2,0,-2.6,-0.1,-2.6,-0.6c0,-0.4,-0.4,-0.6,-1.1,-0.6c-1.7,0,-2.9,-0.4,-2.9,-1c0,-0.4,-0.5,-0.6,-1.4,-0.6c-1,0,-1.4,-0.2,-1.4,-0.6c0,-0.4,-0.4,-0.6,-1.2,-0.6c-0.7,0,-1.3,-0.3,-1.4,-0.6c-0.1,-0.3,-0.7,-0.7,-1.4,-0.8c-0.6,-0.1,-1.2,-0.5,-1.2,-0.8c0,-0.3,-0.4,-0.6,-0.8,-0.6c-0.4,0,-0.8,-0.3,-0.8,-0.6c0,-0.4,-0.4,-0.6,-1,-0.6c-0.6,0,-1.1,-0.3,-1.2,-0.6c-0.1,-0.3,-0.6,-0.7,-1,-0.8c-0.4,-0.1,-0.8,-0.5,-0.8,-0.8c0,-0.3,-0.3,-0.6,-0.6,-0.6c-0.3,0,-0.6,-0.3,-0.6,-0.6c0,-0.3,-0.3,-0.6,-0.6,-0.6c-0.3,0,-0.6,-0.2,-0.6,-0.6c0,-0.3,-0.4,-0.6,-0.8,-0.8c-0.4,-0.1,-0.8,-0.5,-0.8,-0.8c0,-0.3,-0.3,-0.6,-0.6,-0.6c-0.3,0,-0.6,-0.3,-0.6,-0.6c0,-0.3,-0.3,-0.6,-0.6,-0.6c-0.3,0,-0.6,-0.2,-0.6,-0.3c0,-0.2,-0.6,-1,-1.4,-1.9c-0.8,-0.8,-1.4,-1.9,-1.4,-2.3c0,-0.4,-0.3,-0.7,-0.6,-0.7c-0.3,0,-0.6,-0.4,-0.6,-0.8c0,-0.4,-0.2,-0.8,-0.4,-0.8c-0.2,0,-0.7,-0.6,-1,-1.4c-0.3,-0.8,-0.8,-1.5,-1,-1.6c-0.2,-0.1,-0.4,-0.7,-0.4,-1.2c0,-0.5,-0.3,-1.2,-0.6,-1.4c-0.3,-0.3,-0.6,-1.2,-0.6,-2c0,-1.2,-0.2,-1.6,-0.8,-1.7c-0.7,-0.2,-0.8,-0.5,-0.8,-2c0,-1.2,-0.2,-1.9,-0.6,-2c-0.5,-0.2,-0.6,-1,-0.6,-3.4c0,-2.6,-0.1,-3.2,-0.6,-3.2c-0.5,0,-0.6,-1,-0.6,-7c0,-5.9,0.1,-7.1,0.6,-7.2c0.5,-0.2,0.6,-1,0.6,-3.6c0,-2.4,0.2,-3.5,0.6,-3.9c0.3,-0.3,0.6,-1.2,0.6,-1.8c0,-0.7,0.3,-1.6,0.8,-2c0.4,-0.4,0.8,-1.3,0.8,-2c0,-0.8,0.2,-1.2,0.6,-1.2c0.4,0,0.6,-0.4,0.6,-1.2c0,-0.7,0.2,-1.3,0.6,-1.4c0.3,-0.1,0.6,-0.7,0.6,-1.4c0,-0.8,0.2,-1.2,0.8,-1.4c0.5,-0.2,0.8,-0.6,0.8,-1.2c0,-0.5,0.3,-1,0.6,-1.2c0.3,-0.1,0.6,-0.4,0.6,-0.6c0,-0.6,1.8,-2.4,2.3,-2.4c0.3,0,0.5,-0.4,0.5,-0.8c0,-0.9,6,-7.2,6.9,-7.2c0.3,0,0.7,-0.3,0.8,-0.6c0.1,-0.3,0.5,-0.6,0.8,-0.6c0.3,0,0.6,-0.3,0.6,-0.6c0,-0.3,0.4,-0.6,0.8,-0.6c0.4,0,0.8,-0.3,0.8,-0.6c0,-0.4,0.5,-0.7,1.2,-0.8c0.6,-0.1,1.3,-0.5,1.4,-0.8c0.1,-0.3,0.7,-0.6,1.2,-0.6c0.6,0,1.1,-0.3,1.3,-0.6c0.1,-0.3,0.7,-0.6,1.3,-0.6c0.6,0,1.3,-0.3,1.6,-0.8c0.4,-0.6,0.9,-0.8,2.1,-0.8c1.2,0,1.6,-0.2,1.6,-0.6c0,-0.5,0.5,-0.6,2,-0.6c1.5,0,2,-0.1,2,-0.6c0,-0.5,0.7,-0.6,4,-0.6c3.2,0,4,-0.1,4,-0.6c0,-0.9,7.9,-1.5,9.8,-0.8M156,116.9c0,0.2,1.2,1.6,2.6,3c1.4,1.4,2.6,2.7,2.6,3c0,0.2,0.4,0.4,0.8,0.4c0.4,0,0.8,0.3,0.8,0.6c0,0.3,0.3,0.6,0.6,0.6c0.3,0,0.6,0.3,0.6,0.6c0,0.3,0.3,0.6,0.6,0.6c0.3,0,0.7,0.2,0.9,0.5c0.2,0.3,0.8,0.7,1.4,1c0.6,0.3,1.1,0.7,1.1,0.9c0,0.2,0.3,0.4,0.6,0.4c0.3,0,0.7,0.3,0.8,0.6c0.1,0.3,0.7,0.6,1.2,0.6c0.5,0,1.1,0.3,1.2,0.6c0.1,0.3,0.7,0.7,1.4,0.8c0.6,0.1,1.2,0.5,1.4,0.8c0.1,0.3,0.7,0.6,1.4,0.6c0.8,0,1.2,0.2,1.2,0.6c0,0.4,0.4,0.6,1.4,0.6c0.9,0,1.4,0.2,1.4,0.6c0,0.4,0.7,0.6,2.3,0.7c1.5,0.1,2.4,0.4,2.7,0.8c0.4,0.5,1.1,0.7,2.8,0.7c1.6,0,2.3,0.2,2.5,0.6c0.2,0.5,1.7,0.6,10.4,0.6c8.8,0,10.2,-0.1,10.2,-0.6c0,-0.5,0.6,-0.6,2.6,-0.6c1.9,0,2.6,-0.1,2.6,-0.6c0,-0.6,1.2,-1,2.9,-1c0.6,0,1.2,-0.3,1.3,-0.6c0.1,-0.3,0.7,-0.6,1.4,-0.6c0.7,0,1.3,-0.3,1.4,-0.6c0.1,-0.4,0.7,-0.6,1.4,-0.6c0.7,0,1.2,-0.2,1.2,-0.4c0,-0.2,0.6,-0.7,1.4,-1c0.8,-0.3,1.5,-0.8,1.6,-1c0.1,-0.2,0.7,-0.4,1.2,-0.4c0.5,0,1,-0.2,1,-0.5c0,-0.5,0.7,-0.9,2.9,-2c0.6,-0.3,1.1,-0.7,1.1,-1c0,-0.3,0.3,-0.5,0.6,-0.5c0.3,0,0.7,-0.3,0.8,-0.6c0.1,-0.3,0.5,-0.6,0.8,-0.6c0.3,0,0.7,-0.3,0.8,-0.6c0.1,-0.3,0.7,-0.6,1.2,-0.6c0.7,0,1,-0.2,1,-0.8c0,-0.4,0.3,-0.8,0.6,-0.8c0.3,0,0.6,-0.3,0.6,-0.6c0,-0.3,0.4,-0.6,0.8,-0.6c0.6,0,0.8,-0.3,0.8,-0.9c0,-2.3,2,-3.1,7.6,-3.1c4.3,0,5.2,0.1,5.2,0.6c0,0.4,0.5,0.6,1.8,0.6c1.4,0,1.9,0.2,2.2,0.8c0.3,0.6,0.8,0.8,2,0.8c1.1,0,1.7,0.2,1.8,0.6c0.1,0.3,0.6,0.6,1,0.6c0.4,0,0.8,0.3,0.8,0.6c0,0.4,0.4,0.6,1,0.6c0.7,0,1.1,0.3,1.2,0.8c0.1,0.5,0.5,0.8,1.1,0.8c0.5,0,1.1,0.3,1.4,0.6c0.3,0.3,0.7,0.6,1,0.6c0.3,0,0.6,0.3,0.6,0.6c0,0.3,0.2,0.6,0.4,0.6c0.6,0,2.3,1.7,2.3,2.3c0,0.3,0.4,0.5,0.8,0.5c1.1,0,4.4,3.3,4.4,4.4c0,0.4,0.2,0.8,0.4,0.8c0.6,0,2.3,1.7,2.3,2.3c0,0.3,0.3,0.5,0.6,0.5c0.3,0,0.6,0.2,0.6,0.4c0,0.2,0.4,0.8,0.8,1.2c0.4,0.4,0.8,1.2,0.8,1.6c0,0.4,0.3,0.8,0.6,0.8c0.3,0,0.6,0.3,0.6,0.6c0,0.3,0.3,0.7,0.6,0.8c0.4,0.1,0.6,0.7,0.6,1.4c0,0.7,0.2,1.2,0.5,1.2c0.7,0,2.3,2.2,2.3,3.2c0,0.5,0.3,0.8,0.6,0.8c0.4,0,0.6,0.4,0.6,1.2c0,0.8,0.2,1.2,0.6,1.2c0.6,0,1,0.8,1,2c0,0.4,0.3,0.8,0.6,1c0.4,0.1,0.6,0.7,0.6,1.4c0,0.8,0.2,1.2,0.6,1.2c0.4,0,0.6,0.4,0.6,1.2c0,0.7,0.3,1.3,0.6,1.5c0.3,0.2,0.7,1.1,0.9,2c0.1,0.9,0.5,1.9,0.8,2.1c0.3,0.3,0.5,1.1,0.5,2c0,1,0.2,1.6,0.6,1.7c0.4,0.2,0.6,0.8,0.6,2.1c0,1.3,0.2,1.9,0.6,2.1c0.4,0.2,0.6,0.9,0.6,2.7c0,2.2,0.1,2.5,0.8,2.7c0.7,0.2,0.8,0.5,0.8,3.9c0,2.9,0.1,3.7,0.6,3.9c0.5,0.2,0.6,1.5,0.6,8.6v8.4h-4.7c-4,0,-4.7,0.1,-5.2,0.7c-0.4,0.6,-1.3,0.7,-4.6,0.8c-3,0.1,-4.1,0.3,-4.3,0.7c-0.2,0.4,-0.9,0.6,-2.7,0.6c-1.9,0,-2.6,0.2,-2.7,0.6c-0.2,0.4,-0.9,0.6,-2.5,0.6c-1.6,0,-2.4,0.2,-2.7,0.7c-0.3,0.4,-1.3,0.7,-2.6,0.9c-1.2,0.1,-2.3,0.4,-2.5,0.7c-0.2,0.3,-1,0.5,-2.1,0.5c-1.2,0,-1.8,0.2,-2,0.6c-0.2,0.4,-0.8,0.6,-1.9,0.6c-1.1,0,-1.8,0.2,-2.1,0.6c-0.3,0.3,-1.2,0.7,-2.1,0.9c-0.9,0.1,-1.9,0.5,-2.1,0.8c-0.3,0.3,-1.1,0.5,-2,0.5c-1,0,-1.6,0.2,-1.7,0.6c-0.1,0.4,-0.7,0.6,-1.4,0.6c-0.8,0,-1.2,0.2,-1.2,0.6c0,0.6,-1.2,1,-2.9,1c-0.6,0,-1.2,0.3,-1.3,0.6c-0.1,0.4,-0.7,0.6,-1.4,0.6c-0.8,0,-1.2,0.2,-1.2,0.6c0,0.4,-0.5,0.6,-1.7,0.6c-1.3,0,-1.8,0.2,-2.2,0.8c-0.3,0.4,-0.9,0.8,-1.5,0.8c-0.5,0,-1.1,0.3,-1.2,0.6c-0.1,0.3,-0.7,0.6,-1.4,0.6c-0.7,0,-1.3,0.3,-1.4,0.6c-0.1,0.3,-0.7,0.6,-1.3,0.6c-0.6,0,-1.1,0.3,-1.3,0.6c-0.1,0.3,-0.7,0.6,-1.3,0.6c-0.6,0,-1.3,0.3,-1.6,0.8c-0.3,0.4,-0.9,0.8,-1.4,0.8c-0.5,0,-1.2,0.3,-1.4,0.6c-0.3,0.3,-0.8,0.6,-1.3,0.6c-0.4,0,-0.9,0.3,-1,0.6c-0.1,0.3,-0.7,0.6,-1.4,0.6c-0.7,0,-1.2,0.2,-1.2,0.6c0,0.6,-0.8,1,-2,1c-0.4,0,-0.8,0.3,-0.8,0.6c0,0.4,-0.4,0.6,-1.2,0.6c-0.7,0,-1.3,0.3,-1.4,0.6c-0.1,0.4,-0.7,0.6,-1.4,0.6c-0.9,0,-1.2,0.2,-1.2,0.8c0,0.5,-0.3,0.8,-0.6,0.8c-0.3,0,-0.9,0.3,-1.2,0.6c-0.3,0.3,-0.9,0.6,-1.4,0.6c-0.4,0,-0.8,0.2,-0.8,0.5c0,0.5,-0.7,0.9,-2.9,2c-0.6,0.3,-1.1,0.7,-1.1,1c0,0.3,-0.3,0.5,-0.6,0.5c-0.3,0,-0.6,0.3,-0.6,0.6c0,0.3,-0.4,0.6,-0.8,0.6c-0.4,0,-0.8,0.2,-0.8,0.5c0,1.5,-3.7,1.1,-5.3,-0.6c-0.6,-0.6,-1.2,-1.1,-1.4,-1.2c-0.5,0,-2.1,-1.8,-2.1,-2.3c0,-0.2,-0.5,-0.4,-1.2,-0.4c-0.7,0,-1.3,-0.2,-1.4,-0.6c-0.1,-0.3,-0.5,-0.6,-0.8,-0.6c-0.3,0,-0.6,-0.3,-0.6,-0.6c0,-0.4,-0.4,-0.6,-1.2,-0.6c-0.9,0,-1.3,-0.2,-1.4,-0.8c-0.1,-0.6,-0.5,-0.8,-1.4,-0.8c-0.8,0,-1.2,-0.2,-1.2,-0.6c0,-0.3,-0.3,-0.6,-0.7,-0.6c-0.4,0,-1.1,-0.3,-1.5,-0.6c-0.4,-0.3,-1.1,-0.6,-1.5,-0.6c-0.4,0,-1,-0.4,-1.4,-0.8c-0.4,-0.4,-0.9,-0.8,-1.2,-0.8c-0.3,0,-0.5,-0.3,-0.5,-0.6c0,-0.4,-0.4,-0.6,-1.2,-0.6c-0.7,0,-1.3,-0.2,-1.4,-0.6c-0.1,-0.3,-0.7,-0.6,-1.4,-0.6c-0.8,0,-1.2,-0.2,-1.4,-0.8c-0.2,-0.6,-0.6,-0.8,-1.8,-0.8c-1,0,-1.7,-0.2,-1.8,-0.6c-0.1,-0.3,-0.6,-0.6,-1.1,-0.6c-0.5,0,-1.1,-0.3,-1.4,-0.6c-0.3,-0.3,-0.9,-0.6,-1.4,-0.6c-0.5,0,-1.1,-0.2,-1.4,-0.6c-0.3,-0.3,-1,-0.7,-1.6,-0.8c-0.7,-0.1,-1.2,-0.5,-1.2,-0.8c0,-0.4,-0.4,-0.6,-1.6,-0.6c-0.9,0,-1.8,-0.3,-2.2,-0.6c-0.3,-0.3,-1,-0.6,-1.4,-0.6c-0.4,0,-1,-0.2,-1.2,-0.5c-0.3,-0.3,-1.2,-0.6,-2.1,-0.8c-0.9,-0.1,-1.8,-0.5,-2,-0.9c-0.2,-0.3,-0.9,-0.6,-1.5,-0.6c-0.8,0,-1.2,-0.2,-1.2,-0.6c0,-0.4,-0.5,-0.6,-1.8,-0.6c-1.1,0,-1.9,-0.2,-2.1,-0.5c-0.2,-0.3,-1,-0.7,-1.9,-0.8c-0.9,-0.1,-1.8,-0.5,-2,-0.9c-0.3,-0.4,-1.1,-0.6,-2.3,-0.6c-1.4,0,-1.9,-0.2,-1.9,-0.6c0,-0.5,-0.5,-0.6,-2,-0.6c-1.4,0,-2,-0.2,-2,-0.6c0,-0.4,-0.7,-0.6,-2.3,-0.7c-1.5,-0.1,-2.4,-0.4,-2.7,-0.8c-0.3,-0.5,-1.1,-0.7,-2.4,-0.7c-1.3,0,-1.9,-0.2,-2.1,-0.6c-0.2,-0.5,-1,-0.6,-3.4,-0.6c-2.5,0,-3.2,-0.1,-3.2,-0.6c0,-0.5,-0.6,-0.6,-3.4,-0.6c-3.7,0,-4.6,-0.2,-4.6,-1c0,-0.4,-1.1,-0.6,-5.4,-0.6h-5.4v-7c0,-5.5,0.1,-7,0.6,-7.3c0.4,-0.2,0.6,-1.5,0.7,-4.5c0.1,-3.3,0.3,-4.2,0.8,-4.6c0.5,-0.4,0.7,-1.1,0.7,-3c0,-1.9,0.1,-2.5,0.6,-2.5c0.5,0,0.6,-0.5,0.6,-2c0,-1.4,0.2,-2,0.6,-2.2c0.4,-0.2,0.6,-0.8,0.6,-1.9c0,-1.3,0.2,-1.7,0.8,-1.9c0.7,-0.2,0.8,-0.5,0.8,-2.2c0,-1.5,0.1,-2,0.6,-2c0.4,0,0.6,-0.4,0.6,-1.6c0,-0.9,0.3,-1.8,0.6,-2c0.3,-0.3,0.7,-1,0.8,-1.6c0.1,-0.6,0.5,-1.2,0.8,-1.4c0.3,-0.1,0.6,-0.7,0.6,-1.4c0,-0.7,0.2,-1.2,0.4,-1.2c0.2,0,0.8,-0.8,1.2,-1.8c0.5,-1,1.2,-2,1.6,-2.3c0.4,-0.3,0.8,-0.9,0.8,-1.6c0,-0.7,0.2,-1.1,0.6,-1.1c0.3,0,0.6,-0.3,0.6,-0.8c0,-0.4,0.2,-1,0.5,-1.3c0.3,-0.3,0.6,-0.8,0.8,-1.2c0.1,-0.4,0.5,-0.7,0.9,-0.7c0.3,0,0.6,-0.3,0.6,-0.8c0,-0.4,0.3,-0.8,0.6,-0.8c0.3,0,0.7,-0.4,0.8,-1c0.1,-0.5,0.8,-1.5,1.4,-2.2c0.7,-0.7,1.2,-1.4,1.2,-1.6c0,-0.2,0.3,-0.4,0.6,-0.4c0.3,0,0.6,-0.3,0.6,-0.6c0,-0.3,0.2,-0.6,0.6,-0.6c0.3,0,0.6,-0.4,0.8,-0.8c0.1,-0.4,0.5,-0.8,0.8,-0.8c0.3,0,0.6,-0.3,0.6,-0.6c0,-0.3,0.3,-0.6,0.6,-0.6c0.3,0,0.6,-0.3,0.6,-0.6c0,-0.3,0.3,-0.6,0.6,-0.6c0.3,0,0.6,-0.3,0.6,-0.6c0,-0.3,0.1,-0.6,0.3,-0.6c0.2,0,1,-0.6,1.9,-1.4c0.9,-0.8,1.9,-1.4,2.2,-1.4c0.4,0,0.8,-0.3,0.9,-0.6c0.1,-0.3,0.5,-0.6,0.8,-0.6c0.3,0,0.6,-0.3,0.6,-0.6c0,-0.4,0.5,-0.7,1.2,-0.9c0.7,-0.1,1.3,-0.5,1.4,-0.8c0.1,-0.3,0.7,-0.5,1.4,-0.5c0.8,0,1.2,-0.2,1.2,-0.6c0,-0.4,0.4,-0.6,1.4,-0.6c0.9,0,1.4,-0.2,1.4,-0.6c0,-0.7,0.9,-1,2.5,-1.1c0.7,0,1.6,-0.3,2,-0.6c1,-0.7,11,-0.9,11,-0.1" stroke="none" fill="#fefeff" fill-rule="evenodd"/>
</g>
</svg>